<?xml version="1.0" encoding="UTF-8" standalone="no"?>
<svg xmlns="http://www.w3.org/2000/svg" version="1.1" width="100" height="100">
	<g
	   id="g10712">
		<path
		 id="path10702"
		 d="m 54.018025,9.7409537 c -9.708029,0 -17.578193,7.8701353 -17.578193,17.5781783 0,0.817427 0.05922,1.607702 0.167149,2.395767 0.585271,-0.07814 1.176334,-0.111499 1.782895,-0.111499 7.39733,0 13.39953,5.974339 13.39953,13.371684 0,4.537858 -1.542174,8.951161 -4.994472,11.373878 6.226268,2.203561 13.746912,13.72857 18.254715,25.89967 0.198663,4.228548 -0.531154,6.547118 -2.535041,7.80013 20.465078,0.375387 27.129299,1.712414 26.49264,-11.83949 C 83.091345,60.236312 72.27365,44.613376 64.102495,41.72148 c 4.530709,-3.179471 7.493708,-8.447059 7.493708,-14.402406 0,-9.708043 -7.870149,-17.5781783 -17.578178,-17.5781783 z M 29.976859,53.393894 c -0.168925,0.227245 -0.333213,0.464673 -0.50143,0.696453 0.304688,-0.139086 0.596551,-0.265158 0.891448,-0.362157 -0.137642,-0.102978 -0.256507,-0.226205 -0.390018,-0.334296 z"
		 style="color:#000000;fill:#666666;fill-opacity:1;fill-rule:nonzero;stroke:none;stroke-width:3.6725111;marker:none;visibility:visible;display:inline;overflow:visible;enable-background:accumulate" />
		<path
		 id="path10697"
		 d="m 35.854041,32.085059 c -6.980334,0 -12.644742,5.655208 -12.644742,12.635556 0,4.144563 1.994296,7.82932 5.076291,10.134183 C 22.349062,56.80721 14.168332,67.990687 9.7644612,79.881146 9.2442552,90.954293 15.483044,88.202204 35.385035,88.350837 55.287026,88.202204 61.52583,90.954293 61.005609,79.881146 56.751916,68.396172 48.975935,57.154866 43.100645,55.075515 c 3.257693,-2.286131 5.388967,-6.072855 5.388967,-10.3549 0,-6.980348 -5.655237,-12.635556 -12.635571,-12.635556 z"
		 style="color:#000000;fill:#666666;fill-opacity:1;fill-rule:nonzero;stroke:none;stroke-width:3.6725111;marker:none;visibility:visible;display:inline;overflow:visible;enable-background:accumulate"
		 />
	</g>
</svg>
