<?xml version="1.0" encoding="UTF-8" standalone="no"?>
<svg xmlns="http://www.w3.org/2000/svg" version="1.1" width="100" height="100">
<g
       id="g8948">
      <path
         id="path9724"
         d="m 28.187318,19.746831 c -6.63358,0 -12.013766,5.483377 -12.013766,12.250878 0,4.018196 1.892425,7.592447 4.821314,9.82705 C 15.353252,43.717631 7.5808518,53.744783 3.3957534,65.272678 2.9855915,74.179444 7.1293883,73.856622 19.308723,73.57166 24.487524,61.529125 32.666196,50.842972 38.7784,48.832789 35.294324,46.22721 33.061323,42.083927 33.061323,37.398634 c 0,-4.627649 2.198657,-8.74511 5.611693,-11.355115 -2.051105,-3.755014 -5.971559,-6.296688 -10.485698,-6.296688 z"
         style="color:#000000;fill:#666666;fill-opacity:1;fill-rule:nonzero;stroke:none;stroke-width:3.67251109999999990;marker:none;visibility:visible;display:inline;overflow:visible;enable-background:accumulate" />
      <path
         id="path9726"
         d="m 72.896439,19.746831 c -4.438912,0 -8.299544,2.460047 -10.380314,6.112266 3.546577,2.598641 5.848806,6.804201 5.848806,11.539537 0,4.840713 -2.4032,9.113213 -6.085921,11.697614 6.031244,2.134534 13.826687,12.808916 18.811028,24.475412 12.0242,0.283504 16.136467,0.559141 15.728547,-8.298982 -4.042383,-11.134797 -11.436084,-21.221216 -17.0195,-23.237151 3.095876,-2.216435 5.111119,-5.886324 5.111119,-10.037818 0,-6.767501 -5.380185,-12.250878 -12.013765,-12.250878 z"
         style="color:#000000;fill:#666666;fill-opacity:1;fill-rule:nonzero;stroke:none;stroke-width:3.67251109999999990;marker:none;visibility:visible;display:inline;overflow:visible;enable-background:accumulate" />
      <path
         style="color:#000000;fill:#666666;fill-opacity:1;fill-rule:nonzero;stroke:none;stroke-width:3.67251109999999990;marker:none;visibility:visible;display:inline;overflow:visible;enable-background:accumulate"
         d="m 50.707191,23.470451 c -7.768344,0 -14.072223,6.293646 -14.072223,14.06199 0,4.612453 2.21945,8.713175 5.649361,11.278246 -6.6067,2.172814 -15.710946,14.618797 -20.61197,27.851552 -0.578942,12.323197 6.36416,9.26042 28.512884,9.425832 C 72.33395,85.922659 79.27706,88.985436 78.698118,76.662239 73.964225,63.880719 65.3104,51.370389 58.771857,49.056315 c 3.625467,-2.544223 5.997323,-6.758417 5.997323,-11.523874 0,-7.768344 -6.293646,-14.06199 -14.061989,-14.06199 z"
         id="path9728" />
    </g>
</svg>
