<?xml version="1.0" encoding="UTF-8" standalone="no"?>

<svg xmlns="http://www.w3.org/2000/svg" version="1.1" width="100" height="100">
	<path
       style="color:#000000;fill:#666666;fill-opacity:1;fill-rule:nonzero;stroke:none;stroke-width:1.55799997;marker:none;visibility:visible;display:inline;overflow:visible;enable-background:accumulate"
       d="m 75.501569,11.639267 c -1.962022,0.01775 -3.946057,0.383812 -5.829435,1.166881 -2.376013,0.987757 -4.325786,2.494601 -5.775999,4.338745 -3.190327,4.057189 -3.933986,9.713535 -1.457315,14.807656 0.06746,0.13847 0.142022,0.258656 0.21321,0.394463 L 52.326383,44.837238 38.410621,27.120635 43.742271,23.620169 49.571529,13.430686 48.274166,11.737794 36.615474,14.005871 8.9261472,32.198955 16.212718,41.698216 28.47571,33.645263 44.613038,54.188619 24.885771,78.068229 c -2.072798,2.508804 -1.383286,6.091287 1.386126,7.937916 2.76959,1.84663 6.527469,1.22582 8.601865,-1.281918 l 17.29267,-20.92131 17.114789,21.792432 c 1.954388,2.545196 5.742802,3.13849 8.495171,1.331093 2.752547,-1.807219 3.394128,-5.310525 1.439562,-7.855721 L 59.897352,54.468046 71.840442,40.022012 c 3.481825,1.124275 7.354386,1.09374 10.89444,-0.378131 4.982279,-2.071379 8.080825,-6.472258 8.619795,-11.339855 L 78.7361,33.546736 71.058438,28.419063 72.018146,19.69222 84.689981,14.433177 c -2.692366,-1.821598 -5.918376,-2.814326 -9.188412,-2.79391 z"
       id="path4292" />
</svg>
