<?xml version="1.0" encoding="UTF-8" standalone="no"?>

<svg xmlns="http://www.w3.org/2000/svg" version="1.1" width="100" height="100">
	    <g
       id="g8985">
      <path
         id="path8959"
         d="M 32.13367,9.9822846 C 22.002926,9.9562577 18.529754,11.284787 18.967591,20.604526 24.35176,35.141793 32.238349,45.483218 41.58712,51.233706 31.822678,56.995502 24.348734,67.299431 18.967591,81.82851 18.330735,95.384494 25.95424,92.028159 50.318671,92.210118 74.683092,92.028159 82.340984,95.384494 81.704128,81.82851 75.946298,69.31782 70.038171,58.983016 60.115884,51.233706 70.244934,42.996356 77.762164,30.939366 81.704128,20.604526 82.340984,7.0485418 74.683092,10.404877 50.318671,10.222918 42.704792,10.279779 36.738549,9.9941155 32.13367,9.9822846 z m 32.760504,6.3939704 c 7.246301,-0.01833 8.370496,1.085052 8.00965,8.765927 -3.248774,8.517474 -10.868418,19.641553 -19.216287,26.430375 8.177462,6.386605 14.024076,17.435789 18.769397,27.746492 0.524861,11.172182 -1.061382,6.622147 -21.141353,6.772108 C 31.23561,85.941196 28.996219,90.491231 29.52108,79.319049 33.955959,67.344888 39.39843,56.222932 47.445801,51.474339 39.741004,46.735068 32.411517,35.713667 27.974151,23.732758 27.725191,16.0558 40.260299,16.739712 50.765562,16.582512 c 6.27499,0.04686 10.834845,-0.197926 14.128612,-0.206257 z"
         style="color:#000000;fill:#666666;fill-opacity:1;fill-rule:nonzero;stroke:none;stroke-width:3.6725111;marker:none;visibility:visible;display:inline;overflow:visible;enable-background:accumulate" />
      <path
         id="path8978"
         d="m 33.127829,78.551562 c -0.363959,6.305432 4.000915,4.738293 17.924986,4.822931 13.924059,-0.08465 18.288933,1.482501 17.924974,-4.822931 C 66.001769,72.011626 56.295518,65.610451 51.695974,65.51147 47.096429,65.412554 36.208914,71.780735 33.127829,78.551562 z"
         style="color:#000000;fill:#666666;fill-opacity:1;fill-rule:nonzero;stroke:none;stroke-width:3.6725111;marker:none;visibility:visible;display:inline;overflow:visible;enable-background:accumulate"/>
      <path
         style="color:#000000;fill:#666666;fill-opacity:1;fill-rule:nonzero;stroke:none;stroke-width:3.6725111;marker:none;visibility:visible;display:inline;overflow:visible;enable-background:accumulate"
         d="m 38.522866,35.580074 c -0.242449,-6.305431 2.665194,-4.738292 11.940636,-4.82293 9.275432,0.08465 12.183074,-1.482501 11.940626,4.82293 -1.982467,6.539937 -8.448225,12.941111 -11.512194,13.040093 -3.063958,0.09891 -10.316617,-6.269266 -12.369068,-13.040093 z"
         id="path8983"/>
    </g>
</svg>
