<?xml version="1.0" encoding="UTF-8" standalone="no"?>
<!-- Created with Inkscape (http://www.inkscape.org/) -->

<svg
   xmlns:dc="http://purl.org/dc/elements/1.1/"
   xmlns:cc="http://creativecommons.org/ns#"
   xmlns:rdf="http://www.w3.org/1999/02/22-rdf-syntax-ns#"
   xmlns:svg="http://www.w3.org/2000/svg"
   xmlns="http://www.w3.org/2000/svg"
   xmlns:sodipodi="http://sodipodi.sourceforge.net/DTD/sodipodi-0.dtd"
   xmlns:inkscape="http://www.inkscape.org/namespaces/inkscape"
   width="275"
   height="275"
   id="svg2"
   version="1.1"
   inkscape:version="0.48.5 r10040"
   sodipodi:docname="user_3.svg">
  <defs
     id="defs4">
    <clipPath
       id="clipPath3009"
       clipPathUnits="userSpaceOnUse">
      <path
         id="path3011"
         clip-rule="evenodd"
         d="M 7000,1100 C 7000,492.488 6507.51,0 5900,0 5292.49,0 4800,492.488 4800,1100 c 0,607.51 492.49,1100 1100,1100 607.51,0 1100,-492.49 1100,-1100"
         inkscape:connector-curvature="0" />
    </clipPath>
    <clipPath
       id="clipPath3951"
       clipPathUnits="userSpaceOnUse">
      <path
         id="path3953"
         clip-rule="evenodd"
         d="M 7000,1100 C 7000,492.488 6507.51,0 5900,0 5292.49,0 4800,492.488 4800,1100 c 0,607.51 492.49,1100 1100,1100 607.51,0 1100,-492.49 1100,-1100" />
    </clipPath>
  </defs>
  <sodipodi:namedview
     id="base"
     pagecolor="#ffffff"
     bordercolor="#666666"
     borderopacity="1.0"
     inkscape:pageopacity="0.0"
     inkscape:pageshadow="2"
     inkscape:zoom="0.7"
     inkscape:cx="476.00271"
     inkscape:cy="125.16749"
     inkscape:document-units="px"
     inkscape:current-layer="layer1"
     showgrid="false"
     inkscape:window-width="1842"
     inkscape:window-height="1047"
     inkscape:window-x="-8"
     inkscape:window-y="-8"
     inkscape:window-maximized="1" />
  <metadata
     id="metadata7">
    <rdf:RDF>
      <cc:Work
         rdf:about="">
        <dc:format>image/svg+xml</dc:format>
        <dc:type
           rdf:resource="http://purl.org/dc/dcmitype/StillImage" />
        <dc:title></dc:title>
      </cc:Work>
    </rdf:RDF>
  </metadata>
  <g
     inkscape:label="Layer 1"
     inkscape:groupmode="layer"
     id="layer1"
     transform="translate(0,-777.36218)">
    <path
       id="path4213"
       style="fill:#fbfcfc;fill-opacity:1;fill-rule:evenodd;stroke:none"
       d="m 275,914.86218 c 0,75.93875 -61.56125,137.50002 -137.5,137.50002 -75.93875,0 -137.5,-61.56127 -137.5,-137.50002 0,-75.93875 61.56125,-137.5 137.5,-137.5 75.93875,0 137.5,61.56125 137.5,137.5"
       inkscape:connector-curvature="0" />
    <path
       id="path4215"
       style="fill:#fcdaae;fill-opacity:1;fill-rule:nonzero;stroke:none"
       d="m 138.75,983.61218 6.25,0 0,-6.25 -6.25,0 0,6.25 z"
       inkscape:connector-curvature="0" />
    <path
       id="path4217"
       style="fill:#1e2633;fill-opacity:1;fill-rule:evenodd;stroke:none"
       d="m 137.5,1052.3622 c 25.45375,0 49.28625,-6.925 69.7325,-18.98 -5.34,-14.7687 -10.77125,-26.7337 -20.6875,-32.9438 -22.41375,-14.03622 -35.90375,-15.39622 -49.13125,-15.57622 -13.52375,-0.185 -26.78,1.12625 -49.03375,15.57622 -9.79875,6.3613 -15.25,18.26 -20.615,32.9413 20.44625,12.0575 44.28,18.9825 69.735,18.9825"
       inkscape:connector-curvature="0" />
    <path
       id="path4219"
       style="fill:#e7ae87;fill-opacity:1;fill-rule:nonzero;stroke:none"
       d="m 117.5,952.36218 0,39.8125 -0.0138,0.1875 c 0,7.59375 8.95375,13.75002 20,13.75002 11.04625,0 20,-6.15627 20,-13.75002 l 0.0138,0 0,-40 -40,0"
       inkscape:connector-curvature="0" />
    <path
       id="path4221"
       style="fill:#e4ebe9;fill-opacity:1;fill-rule:nonzero;stroke:none"
       d="m 148.75,993.61218 -35,0 0,27.50002 23.75,31.25 23.75,-31.25 0,-27.50002 -12.5,0"
       inkscape:connector-curvature="0" />
    <path
       id="path4223"
       style="fill:#253f5a;fill-opacity:1;fill-rule:evenodd;stroke:none"
       d="m 137.5,993.61218 11.25,3.75 -11.25,15.00002 -11.25,-15.00002 11.25,-3.75"
       inkscape:connector-curvature="0" />
    <path
       id="path4225"
       style="fill:#253f5a;fill-opacity:1;fill-rule:nonzero;stroke:none"
       d="m 141.25,1004.8622 -7.5,0 -3.75,37.5 7.5,10 7.5,-10 -3.75,-37.5"
       inkscape:connector-curvature="0" />
    <path
       id="path4227"
       style="fill:#273041;fill-opacity:1;fill-rule:nonzero;stroke:none"
       d="m 157.5,986.11218 c 0,0 0.47375,18.50872 -3.31875,32.68252 -3.79375,14.1725 -16.68125,33.5675 -16.68125,33.5675 0,0 33.125,-24.1675 33.75,-31.0975 0,-2.1963 -8.75,-6.76 -8.75,-6.76 0,0 8.75,-1.5213 8.75,-2.7037 -5.78125,-17.23882 -13.75,-25.68882 -13.75,-25.68882"
       inkscape:connector-curvature="0" />
    <path
       id="path4229"
       style="fill:#273041;fill-opacity:1;fill-rule:nonzero;stroke:none"
       d="m 117.5,986.11218 c 0,0 -0.47375,18.50872 3.31875,32.68252 3.79375,14.1725 16.68125,33.5675 16.68125,33.5675 0,0 -33.125,-24.1675 -33.75,-31.0975 0,-2.1963 8.75,-6.76 8.75,-6.76 0,0 -8.75,-1.5213 -8.75,-2.7037 5.78125,-17.23882 13.75,-25.68882 13.75,-25.68882"
       inkscape:connector-curvature="0" />
    <path
       id="path4231"
       style="fill:#ffffff;fill-opacity:1;fill-rule:nonzero;stroke:none"
       d="m 157.5,986.11218 c 0,3.45125 -8.95375,6.25 -20,6.25 -11.04625,0 -20,-2.79875 -20,-6.25 l -3.75,18.75002 23.75,-11.25002 23.75,11.25002 -3.75,-18.75002"
       inkscape:connector-curvature="0" />
    <path
       id="path4233"
       style="fill:#f4cca2;fill-opacity:1;fill-rule:nonzero;stroke:none"
       d="m 225.13625,908.63843 c 0,7.59375 -5.5975,13.75 -12.5,13.75 -6.90375,0 -12.50125,-6.15625 -12.50125,-13.75 0,-7.59375 5.5975,-13.75 12.50125,-13.75 6.9025,0 12.5,6.15625 12.5,13.75"
       inkscape:connector-curvature="0" />
    <path
       id="path4235"
       style="fill:#f4cca2;fill-opacity:1;fill-rule:nonzero;stroke:none"
       d="m 75.13625,908.63843 c 0,7.59375 -5.5975,13.75 -12.5,13.75 -6.90375,0 -12.50125,-6.15625 -12.50125,-13.75 0,-7.59375 5.5975,-13.75 12.50125,-13.75 6.9025,0 12.5,6.15625 12.5,13.75"
       inkscape:connector-curvature="0" />
    <path
       id="path4237"
       style="fill:#fcdaae;fill-opacity:1;fill-rule:nonzero;stroke:none"
       d="m 212.48625,908.61218 c 0,41.42125 -33.57875,75 -75,75 -41.42125,0 -75,-33.57875 -75,-75 0,-41.42125 33.57875,-75 75,-75 41.42125,0 75,33.57875 75,75"
       inkscape:connector-curvature="0" />
    <path
       id="path4239"
       style="fill:#4a4962;fill-opacity:1;fill-rule:nonzero;stroke:none"
       d="m 116.25,897.98718 c 0,3.10625 -2.51875,5.625 -5.625,5.625 -3.10625,0 -5.625,-2.51875 -5.625,-5.625 0,-3.10625 2.51875,-5.625 5.625,-5.625 3.10625,0 5.625,2.51875 5.625,5.625"
       inkscape:connector-curvature="0" />
    <path
       id="path4241"
       style="fill:#ffffff;fill-opacity:1;fill-rule:nonzero;stroke:none"
       d="m 113.75,896.73718 c 0,1.03625 -0.84,1.875 -1.875,1.875 -1.035,0 -1.875,-0.83875 -1.875,-1.875 0,-1.03625 0.84,-1.875 1.875,-1.875 1.035,0 1.875,0.83875 1.875,1.875"
       inkscape:connector-curvature="0" />
    <path
       id="path4243"
       style="fill:#4a4962;fill-opacity:1;fill-rule:nonzero;stroke:none"
       d="m 170,897.98718 c 0,3.10625 -2.51875,5.625 -5.625,5.625 -3.10625,0 -5.625,-2.51875 -5.625,-5.625 0,-3.10625 2.51875,-5.625 5.625,-5.625 3.10625,0 5.625,2.51875 5.625,5.625"
       inkscape:connector-curvature="0" />
    <path
       id="path4245"
       style="fill:#ffffff;fill-opacity:1;fill-rule:nonzero;stroke:none"
       d="m 167.5,896.73718 c 0,1.03625 -0.84,1.875 -1.875,1.875 -1.035,0 -1.875,-0.83875 -1.875,-1.875 0,-1.03625 0.84,-1.875 1.875,-1.875 1.035,0 1.875,0.83875 1.875,1.875"
       inkscape:connector-curvature="0" />
    <path
       id="path4247"
       style="fill:#e5825a;fill-opacity:1;fill-rule:nonzero;stroke:none"
       d="m 137.6675,969.86218 c 9.875,0 17.9675,-7.95875 18.69625,-17.37 0.0575,-0.73875 -0.505,-1.38 -1.2475,-1.38 l -34.89875,0 c -0.74125,0 -1.30375,0.64125 -1.24625,1.38 0.7275,9.41125 8.82,17.37 18.69625,17.37"
       inkscape:connector-curvature="0" />
    <path
       id="path4249"
       style="fill:#f7c193;fill-opacity:1;fill-rule:nonzero;stroke:none"
       d="m 135,938.61218 -7.5,0 c -0.39,0 -0.75875,-0.1825 -0.995,-0.49375 -0.23625,-0.31125 -0.31375,-0.715 -0.20875,-1.09125 l 6.25,-22.5 c 0.1775,-0.64125 0.82625,-1.03125 1.48,-0.885 0.65,0.14875 1.07125,0.78 0.955,1.4375 l -3.49125,19.7825 3.51,0 c 0.69,0 1.25,0.55875 1.25,1.25 l 0,1.25 c 0,0.69125 -0.56,1.25 -1.25,1.25"
       inkscape:connector-curvature="0" />
    <path
       id="path4251"
       style="fill:#4a4962;fill-opacity:1;fill-rule:nonzero;stroke:none"
       d="m 113.75,882.36218 c 51.71875,-17.96875 68.75,-32.5 68.75,-32.5 2.03125,12.34375 18.4375,42.65625 35.59875,47.5 0.405,-3.27875 0.6375,-6.61125 0.6375,-10 0,-44.8725 -36.37625,-81.25 -81.25,-81.25 -44.8725,0 -81.25,36.3775 -81.25,81.25 0,4.12 0.31875,8.1625 0.91375,12.11625 11.24625,-2.665 29.49625,-7.7 56.6,-17.11625"
       inkscape:connector-curvature="0" />
  </g>
</svg>
