<?xml version="1.0" encoding="UTF-8" standalone="no"?>
<!-- Created with Inkscape (http://www.inkscape.org/) -->

<svg
   xmlns:dc="http://purl.org/dc/elements/1.1/"
   xmlns:cc="http://creativecommons.org/ns#"
   xmlns:rdf="http://www.w3.org/1999/02/22-rdf-syntax-ns#"
   xmlns:svg="http://www.w3.org/2000/svg"
   xmlns="http://www.w3.org/2000/svg"
   version="1.1"
   width="275"
   height="275"
   id="svg2">
  <defs
     id="defs4">
    <clipPath
       id="clipPath3009">
      <path
         d="M 7000,1100 C 7000,492.488 6507.51,0 5900,0 5292.49,0 4800,492.488 4800,1100 c 0,607.51 492.49,1100 1100,1100 607.51,0 1100,-492.49 1100,-1100"
         id="path3011" />
    </clipPath>
  </defs>
  <metadata
     id="metadata7">
    <rdf:RDF>
      <cc:Work
         rdf:about="">
        <dc:format>image/svg+xml</dc:format>
        <dc:type
           rdf:resource="http://purl.org/dc/dcmitype/StillImage" />
        <dc:title></dc:title>
      </cc:Work>
    </rdf:RDF>
  </metadata>
  <g
     transform="translate(0,-777.36218)"
     id="layer1">
    <path
       d="m 275,914.86218 c 0,75.939 -61.56125,137.50002 -137.5,137.50002 -75.93875,0 -137.5,-61.56102 -137.5,-137.50002 0,-75.93875 61.56125,-137.5 137.5,-137.5 75.93875,0 137.5,61.56125 137.5,137.5"
       id="path2999"
       style="fill:#fbfcfc;fill-opacity:1;fill-rule:evenodd;stroke:none" />
    <path
       d="m 275,914.86219 c 0,75.93875 -61.56125,137.50001 -137.5,137.50001 -75.93875,0 -137.5,-61.56126 -137.5,-137.50001 0,-75.93875 61.56125,-137.5 137.5,-137.5 75.93875,0 137.5,61.56125 137.5,137.5"
       id="path3041"
       style="fill:#fbfcfc;fill-opacity:1;fill-rule:evenodd;stroke:none" />
    <path
       d="m 137.5,1052.3622 c 25.45375,0 49.28625,-6.925 69.7325,-18.98 -5.34,-14.7687 -10.77125,-26.7337 -20.6875,-32.9438 -22.41375,-14.03621 -35.90375,-15.39621 -49.13125,-15.57621 -13.52375,-0.185 -26.78,1.12625 -49.03375,15.57621 -9.79875,6.3613 -15.25,18.2601 -20.615,32.9413 20.44625,12.0575 44.28,18.9825 69.735,18.9825"
       id="path3071"
       style="fill:#3aae9b;fill-opacity:1;fill-rule:evenodd;stroke:none" />
    <path
       d="m 117.5,952.36219 0,39.8125 -0.0138,0.1875 c 0,7.59375 8.95375,13.75001 20,13.75001 11.04625,0 20,-6.15626 20,-13.75001 l 0.0137,0 0,-40 -40,0"
       id="path3073"
       style="fill:#e7ae87;fill-opacity:1;fill-rule:nonzero;stroke:none" />
    <path
       d="m 116.45875,1011.321 42.8125,0 0,-18.95856 -42.8125,0 0,18.95856 z"
       id="path3075"
       style="fill:#3aae9b;fill-opacity:1;fill-rule:nonzero;stroke:none" />
    <path
       d="m 157.5,986.11219 c 0,3.45125 -8.95375,6.25 -20,6.25 -11.04625,0 -20,-2.79875 -20,-6.25 l -3.75,18.75001 23.75,-11.25001 23.75,11.25001 -3.75,-18.75001"
       id="path3077"
       style="fill:#2b7c80;fill-opacity:1;fill-rule:nonzero;stroke:none" />
    <path
       d="m 143.75,992.36219 -12.5,0 0,59.84251 c 2.07375,0.094 4.15375,0.1575 6.25,0.1575 2.09625,0 4.17625,-0.064 6.25,-0.1575 l 0,-59.84251"
       id="path3079"
       style="fill:#2b7c80;fill-opacity:1;fill-rule:nonzero;stroke:none" />
    <path
       d="m 138.75,997.36219 c 0,0.69 -0.56,1.25 -1.25,1.25 -0.69,0 -1.25,-0.56 -1.25,-1.25 0,-0.69 0.56,-1.25 1.25,-1.25 0.69,0 1.25,0.56 1.25,1.25"
       id="path3081"
       style="fill:#ffffff;fill-opacity:1;fill-rule:nonzero;stroke:none" />
    <path
       d="m 138.75,1021.1122 c 0,0.69 -0.56,1.25 -1.25,1.25 -0.69,0 -1.25,-0.56 -1.25,-1.25 0,-0.69 0.56,-1.25 1.25,-1.25 0.69,0 1.25,0.56 1.25,1.25"
       id="path3083"
       style="fill:#ffffff;fill-opacity:1;fill-rule:nonzero;stroke:none" />
    <path
       d="m 138.75,1044.8622 c 0,0.69 -0.56,1.25 -1.25,1.25 -0.69,0 -1.25,-0.56 -1.25,-1.25 0,-0.69 0.56,-1.25 1.25,-1.25 0.69,0 1.25,0.56 1.25,1.25"
       id="path3085"
       style="fill:#ffffff;fill-opacity:1;fill-rule:nonzero;stroke:none" />
    <path
       d="m 156.25,1017.3622 0,11.25 c 0,4.8325 4.4775,8.75 10,8.75 5.5225,0 10,-3.9175 10,-8.75 l 0,-11.25 -20,0"
       id="path3087"
       style="fill:#2b7c80;fill-opacity:1;fill-rule:nonzero;stroke:none" />
    <path
       d="m 212.48625,908.61219 c 0,41.42125 -33.57875,75 -75,75 -41.42125,0 -75,-33.57875 -75,-75 0,-41.42125 33.57875,-75 75,-75 41.42125,0 75,33.57875 75,75"
       id="path3089"
       style="fill:#fcdaae;fill-opacity:1;fill-rule:nonzero;stroke:none" />
    <path
       d="m 225.13625,908.63844 c 0,7.59375 -5.5975,13.75 -12.5,13.75 -6.90375,0 -12.50125,-6.15625 -12.50125,-13.75 0,-7.59375 5.5975,-13.75 12.50125,-13.75 6.9025,0 12.5,6.15625 12.5,13.75"
       id="path3091"
       style="fill:#f4cca2;fill-opacity:1;fill-rule:nonzero;stroke:none" />
    <path
       d="m 75.13625,908.63844 c 0,7.59375 -5.5975,13.75 -12.5,13.75 -6.90375,0 -12.50125,-6.15625 -12.50125,-13.75 0,-7.59375 5.5975,-13.75 12.50125,-13.75 6.9025,0 12.5,6.15625 12.5,13.75"
       id="path3093"
       style="fill:#f4cca2;fill-opacity:1;fill-rule:nonzero;stroke:none" />
    <path
       d="m 116.25,897.98719 c 0,3.1075 -2.51875,5.625 -5.625,5.625 -3.10625,0 -5.625,-2.5175 -5.625,-5.625 0,-3.10625 2.51875,-5.625 5.625,-5.625 3.10625,0 5.625,2.51875 5.625,5.625"
       id="path3095"
       style="fill:#4a4962;fill-opacity:1;fill-rule:nonzero;stroke:none" />
    <path
       d="m 113.75,896.73719 c 0,1.03625 -0.84,1.875 -1.875,1.875 -1.035,0 -1.875,-0.83875 -1.875,-1.875 0,-1.03625 0.84,-1.875 1.875,-1.875 1.035,0 1.875,0.83875 1.875,1.875"
       id="path3097"
       style="fill:#ffffff;fill-opacity:1;fill-rule:nonzero;stroke:none" />
    <path
       d="m 170,897.98719 c 0,3.1075 -2.51875,5.625 -5.625,5.625 -3.10625,0 -5.625,-2.5175 -5.625,-5.625 0,-3.10625 2.51875,-5.625 5.625,-5.625 3.10625,0 5.625,2.51875 5.625,5.625"
       id="path3099"
       style="fill:#4a4962;fill-opacity:1;fill-rule:nonzero;stroke:none" />
    <path
       d="m 167.5,896.73719 c 0,1.03625 -0.84,1.875 -1.875,1.875 -1.03625,0 -1.875,-0.83875 -1.875,-1.875 0,-1.03625 0.83875,-1.875 1.875,-1.875 1.035,0 1.875,0.83875 1.875,1.875"
       id="path3101"
       style="fill:#ffffff;fill-opacity:1;fill-rule:nonzero;stroke:none" />
    <path
       d="m 137.6675,969.86219 c 9.875,0 17.9675,-7.95875 18.69625,-17.37 0.0575,-0.73875 -0.505,-1.38 -1.2475,-1.38 l -34.89875,0 c -0.74125,0 -1.30375,0.64125 -1.24625,1.38 0.7275,9.41125 8.82,17.37 18.69625,17.37"
       id="path3103"
       style="fill:#e5825a;fill-opacity:1;fill-rule:nonzero;stroke:none" />
    <path
       d="m 135,938.61219 -7.5,0 c -0.39,0 -0.75875,-0.1825 -0.995,-0.49375 -0.23625,-0.31125 -0.31375,-0.715 -0.20875,-1.09125 l 6.25,-22.5 c 0.1775,-0.64125 0.82625,-1.03125 1.48,-0.885 0.65,0.14875 1.07125,0.78 0.955,1.4375 l -3.49125,19.7825 3.51,0 c 0.69,0 1.25,0.55875 1.25,1.25 l 0,1.25 c 0,0.69125 -0.56,1.25 -1.25,1.25"
       id="path3105"
       style="fill:#f7c193;fill-opacity:1;fill-rule:nonzero;stroke:none" />
    <path
       d="m 105.8475,922.64594 c -0.0363,0 -0.0713,0 -0.1075,0 -7.51125,-0.0213 -15.85875,-2.71125 -18.8425,-8.07875 -4.24,-7.635 -5.2925,-23.05375 0.1475,-26.26375 2.00875,-1.18625 8.08125,-2.04875 14.9425,-2.04875 1.2325,0 2.48875,0.0288 3.7525,0.0875 8.6325,0.3975 17.5675,2.23875 20.77,6.51125 5.2825,7.0425 -3.2275,24.20625 -11.2975,28.02 -2.49625,1.1825 -5.83625,1.7725 -9.365,1.7725 m 4.7775,-30.28375 c -3.10625,0 -5.625,2.51875 -5.625,5.625 0,3.1075 2.51875,5.625 5.625,5.625 3.10625,0 5.625,-2.5175 5.625,-5.625 0,-3.10625 -2.51875,-5.625 -5.625,-5.625"
       id="path3107"
       style="fill:#fde0ba;fill-opacity:1;fill-rule:nonzero;stroke:none" />
    <path
       d="m 110.625,903.61219 c -3.10625,0 -5.625,-2.5175 -5.625,-5.625 0,-3.10625 2.51875,-5.625 5.625,-5.625 3.10625,0 5.625,2.51875 5.625,5.625 0,3.1075 -2.51875,5.625 -5.625,5.625 m 1.25,-8.75 c -1.035,0 -1.875,0.83875 -1.875,1.875 0,1.03625 0.84,1.875 1.875,1.875 1.035,0 1.875,-0.83875 1.875,-1.875 0,-1.03625 -0.84,-1.875 -1.875,-1.875"
       id="path3109"
       style="fill:#64647b;fill-opacity:1;fill-rule:nonzero;stroke:none" />
    <path
       d="m 111.875,898.61219 c -1.035,0 -1.875,-0.83875 -1.875,-1.875 0,-1.03625 0.84,-1.875 1.875,-1.875 1.035,0 1.875,0.83875 1.875,1.875 0,1.03625 -0.84,1.875 -1.875,1.875"
       id="path3111"
       style="fill:#ffffff;fill-opacity:1;fill-rule:nonzero;stroke:none" />
    <path
       d="m 188.075,914.56719 c -2.9825,5.3675 -11.33125,8.0575 -18.84125,8.07875 -3.57125,0.0125 -6.95125,-0.5775 -9.475,-1.7725 -8.06875,-3.81375 -16.57875,-20.9775 -11.2975,-28.02 3.20375,-4.2725 12.14125,-6.11375 20.7725,-6.51125 8.30375,-0.38625 16.32375,0.5625 18.69625,1.96125 5.43875,3.21 4.385,18.62875 0.145,26.26375 m -72.8625,6.30625 c -2.52125,1.195 -5.90375,1.785 -9.4725,1.7725 -7.51125,-0.0213 -15.85875,-2.71125 -18.8425,-8.07875 -4.24,-7.635 -5.2925,-23.05375 0.1475,-26.26375 2.36875,-1.39875 10.3925,-2.3475 18.695,-1.96125 8.6325,0.3975 17.5675,2.23875 20.77,6.51125 5.2825,7.0425 -3.2275,24.20625 -11.2975,28.02 m 84.74625,-31.8375 c -0.145,-2.4925 -0.24125,-2.76 -3.52,-3.8125 -2.56625,-0.82375 -16.6325,-2.0325 -27.205,-1.465 -0.7325,0.0388 -1.445,0.0863 -2.1375,0.145 -9.575,0.78625 -21.1025,4.65125 -29.7275,4.8425 -3.66625,0.0788 -18.79125,-3.965 -29.49,-4.8425 -0.69375,-0.0588 -1.40875,-0.10625 -2.13875,-0.145 -10.57125,-0.565 -24.64125,0.64125 -27.205,1.465 -3.28125,1.0525 -3.375,1.32 -3.5225,3.8125 -0.145,2.4975 0.26375,4.63625 2.2,5.28375 2.6425,0.88125 2.6675,4.21625 4.4025,13.79 1.5825,8.72375 5.43375,15.62 22.00875,16.87375 0.725,0.055 1.43,0.0863 2.11625,0.0962 14.625,0.21125 19.67625,-9.49 21.3575,-12.715 3.13875,-6.015 2.175,-14.31 10.39,-14.31 8.21375,0 7.395,8.1475 10.535,14.1625 1.68,3.225 6.59875,13.05875 21.21125,12.86 0.68375,-0.007 1.38875,-0.0387 2.1175,-0.0937 16.57375,-1.25375 20.425,-8.15 22.005,-16.87375 1.73875,-9.57375 1.7625,-12.90875 4.4025,-13.79 1.9375,-0.6475 2.3475,-2.78625 2.2,-5.28375"
       id="path3113"
       style="fill:#305464;fill-opacity:1;fill-rule:evenodd;stroke:none" />
    <path
       d="m 169.1275,922.64594 c -3.5325,0 -6.87,-0.59 -9.36875,-1.7725 -8.06875,-3.81375 -16.57875,-20.9775 -11.2975,-28.02 3.20375,-4.2725 12.14125,-6.11375 20.7725,-6.51125 1.26375,-0.0587 2.52125,-0.0875 3.7525,-0.0875 6.86125,0 12.9325,0.8625 14.94375,2.04875 5.43875,3.21 4.385,18.62875 0.145,26.26375 -2.9825,5.3675 -11.33125,8.0575 -18.84125,8.07875 -0.035,0 -0.0712,0 -0.10625,0 m -4.7525,-30.28375 c -3.10625,0 -5.625,2.51875 -5.625,5.625 0,3.1075 2.51875,5.625 5.625,5.625 3.10625,0 5.625,-2.5175 5.625,-5.625 0,-3.10625 -2.51875,-5.625 -5.625,-5.625"
       id="path3115"
       style="fill:#fde0ba;fill-opacity:1;fill-rule:nonzero;stroke:none" />
    <path
       d="m 164.375,903.61219 c -3.10625,0 -5.625,-2.5175 -5.625,-5.625 0,-3.10625 2.51875,-5.625 5.625,-5.625 3.10625,0 5.625,2.51875 5.625,5.625 0,3.1075 -2.51875,5.625 -5.625,5.625 m 1.25,-8.75 c -1.03625,0 -1.875,0.83875 -1.875,1.875 0,1.03625 0.83875,1.875 1.875,1.875 1.035,0 1.875,-0.83875 1.875,-1.875 0,-1.03625 -0.84,-1.875 -1.875,-1.875"
       id="path3117"
       style="fill:#64647b;fill-opacity:1;fill-rule:nonzero;stroke:none" />
    <path
       d="m 165.625,898.61219 c -1.03625,0 -1.875,-0.83875 -1.875,-1.875 0,-1.03625 0.83875,-1.875 1.875,-1.875 1.035,0 1.875,0.83875 1.875,1.875 0,1.03625 -0.84,1.875 -1.875,1.875"
       id="path3119"
       style="fill:#ffffff;fill-opacity:1;fill-rule:nonzero;stroke:none" />
    <path
       d="m 169.125,923.22969 c -3.64625,0 -7.09,-0.60875 -9.67,-1.82875 -8.3275,-3.9375 -17.11,-21.65125 -11.65875,-28.92 3.305,-4.40875 12.52875,-6.30875 21.43875,-6.71875 1.30375,-0.0612 2.6,-0.09 3.87125,-0.09 7.08125,0 13.3475,0.89 15.4225,2.11375 5.61375,3.3125 4.52625,19.22625 0.15,27.105 -3.0775,5.54 -11.695,8.315 -19.44375,8.33875 -0.0375,0 -0.0738,0 -0.11,0 m 3.86125,-36.975 c -1.23125,0 -2.48875,0.0288 -3.7525,0.0875 -8.63125,0.3975 -17.56875,2.23875 -20.7725,6.51125 -5.28125,7.0425 3.22875,24.20625 11.2975,28.02 2.49875,1.1825 5.83625,1.7725 9.36875,1.7725 0.035,0 0.0712,0 0.10625,0 7.51,-0.0213 15.85875,-2.71125 18.84125,-8.07875 4.24,-7.635 5.29375,-23.05375 -0.145,-26.26375 -2.01125,-1.18625 -8.0825,-2.04875 -14.94375,-2.04875"
       id="path3121"
       style="fill:#4a6f7d;fill-opacity:1;fill-rule:nonzero;stroke:none" />
    <path
       d="m 137.48625,977.36219 c -48.945,0 -69.0325,-33.28125 -74.98625,-68.75 0,5.10375 0,4.48875 0,8.75 0,41.42125 25.18125,78.75 74.98625,78.75 49.805,0 75.01375,-37.32875 75.01375,-78.75 0,-4.26125 0,-4.79125 0,-8.75 -5.95375,35.46875 -26.06875,68.75 -75.01375,68.75"
       id="path3123"
       style="fill:#593117;fill-opacity:1;fill-rule:nonzero;stroke:none" />
    <path
       d="m 171.1,947.47094 c -0.006,-0.51625 -0.31125,-0.99375 -0.7875,-1.22375 -0.46875,-0.225 -1.03375,-0.18 -1.4575,0.1325 -3.91625,2.865 -8.10625,1.77375 -10.24375,-0.65 -2.48875,-2.8125 -5.70625,-8.77625 -13.355,-8.345 -4.555,0.26375 -6.69125,2.25 -7.77,4.60625 -1.08,-2.35625 -3.21125,-4.34875 -7.76375,-4.60625 -7.6575,-0.43125 -10.87375,5.5325 -13.3625,8.345 -2.13875,2.42375 -6.32625,3.515 -10.245,0.65 -0.42375,-0.305 -0.98625,-0.3575 -1.45625,-0.1275 -0.46875,0.2325 -0.77375,0.7025 -0.7875,1.21875 -0.0525,2.73875 0.70875,6.87 5.12875,9.61625 7.11625,4.40875 17.9625,5.4925 24.965,-0.68125 0,0 2.13625,-2.25 3.52125,-5.02375 1.38875,2.77375 3.5275,5.02375 3.5275,5.02375 7.0025,6.17375 17.84875,5.09 24.95625,0.68125 4.42875,-2.74625 5.19,-6.8775 5.13,-9.61625"
       id="path3125"
       style="fill:#593117;fill-opacity:1;fill-rule:nonzero;stroke:none" />
    <path
       d="m 137.5,972.36219 c -4.375,0 -9.6875,5 -13.75,5 l 27.5,0 c -4.0625,0 -9.375,-5 -13.75,-5"
       id="path3127"
       style="fill:#593117;fill-opacity:1;fill-rule:nonzero;stroke:none" />
    <path
       d="m 137.48625,806.11219 c -49.205,0 -61.0275,19.79125 -61.23625,35 -7.1875,1.71875 -20,5.3125 -20,46.25 0,3.09 0.18875,6.13375 0.52375,9.13375 1.74875,-1.02375 3.7425,-1.6075 5.8625,-1.6075 0.37625,0 0.74625,0.025 1.11375,0.0612 2.76,-14.9825 9.97625,-28.3975 20.2125,-38.83875 21.9525,18.51375 44.78125,20.43625 58.5375,21.25125 -3.95875,-4.6875 -5,-11.25 -5,-11.25 0,0 6.3475,6.875 34.26375,14.6875 27.9175,7.8125 40.73625,20.3125 40.73625,20.3125 0,0 -0.17,-2.3225 -0.65,-6.1725 0.26125,-0.02 0.52,-0.0512 0.78625,-0.0512 2.0175,0 3.91875,0.53875 5.60625,1.4725 0.32625,-2.95625 0.5075,-5.95625 0.5075,-8.99875 0,-44.8725 -36.39,-81.25 -81.26375,-81.25"
       id="path3129"
       style="fill:#593117;fill-opacity:1;fill-rule:evenodd;stroke:none" />
  </g>
</svg>
