<?xml version="1.0" encoding="UTF-8" standalone="no"?>
<!-- Created with Inkscape (http://www.inkscape.org/) -->

<svg
   xmlns:dc="http://purl.org/dc/elements/1.1/"
   xmlns:cc="http://creativecommons.org/ns#"
   xmlns:rdf="http://www.w3.org/1999/02/22-rdf-syntax-ns#"
   xmlns:svg="http://www.w3.org/2000/svg"
   xmlns="http://www.w3.org/2000/svg"
   xmlns:sodipodi="http://sodipodi.sourceforge.net/DTD/sodipodi-0.dtd"
   xmlns:inkscape="http://www.inkscape.org/namespaces/inkscape"
   width="275"
   height="275"
   id="svg2"
   version="1.1"
   inkscape:version="0.48.5 r10040"
   sodipodi:docname="user_6.svg">
  <defs
     id="defs4">
    <clipPath
       id="clipPath3009"
       clipPathUnits="userSpaceOnUse">
      <path
         id="path3011"
         clip-rule="evenodd"
         d="M 7000,1100 C 7000,492.488 6507.51,0 5900,0 5292.49,0 4800,492.488 4800,1100 c 0,607.51 492.49,1100 1100,1100 607.51,0 1100,-492.49 1100,-1100"
         inkscape:connector-curvature="0" />
    </clipPath>
    <clipPath
       id="clipPath3951"
       clipPathUnits="userSpaceOnUse">
      <path
         id="path3953"
         clip-rule="evenodd"
         d="M 7000,1100 C 7000,492.488 6507.51,0 5900,0 5292.49,0 4800,492.488 4800,1100 c 0,607.51 492.49,1100 1100,1100 607.51,0 1100,-492.49 1100,-1100" />
    </clipPath>
  </defs>
  <sodipodi:namedview
     id="base"
     pagecolor="#ffffff"
     bordercolor="#666666"
     borderopacity="1.0"
     inkscape:pageopacity="0.0"
     inkscape:pageshadow="2"
     inkscape:zoom="0.5"
     inkscape:cx="1221.4286"
     inkscape:cy="-10.00002"
     inkscape:document-units="px"
     inkscape:current-layer="layer1"
     showgrid="false"
     inkscape:window-width="1842"
     inkscape:window-height="1047"
     inkscape:window-x="-8"
     inkscape:window-y="-8"
     inkscape:window-maximized="1" />
  <metadata
     id="metadata7">
    <rdf:RDF>
      <cc:Work
         rdf:about="">
        <dc:format>image/svg+xml</dc:format>
        <dc:type
           rdf:resource="http://purl.org/dc/dcmitype/StillImage" />
        <dc:title></dc:title>
      </cc:Work>
    </rdf:RDF>
  </metadata>
  <g
     inkscape:label="Layer 1"
     inkscape:groupmode="layer"
     id="layer1"
     transform="translate(0,-777.36218)">
    <path
       id="path4073"
       style="fill:#fbfcfc;fill-opacity:1;fill-rule:evenodd;stroke:none"
       d="m 275,914.86218 c 0,75.93875 -61.5613,137.50002 -137.5,137.50002 -75.9388,0 -137.5,-61.56127 -137.5,-137.50002 0,-75.93875 61.5612,-137.5 137.5,-137.5 75.9387,0 137.5,61.56125 137.5,137.5"
       inkscape:connector-curvature="0" />
    <path
       id="path4075"
       style="fill:#8c555d;fill-opacity:1;fill-rule:evenodd;stroke:none"
       d="m 137.5,1052.3622 c 25.4537,0 49.2862,-6.925 69.7325,-18.98 -5.34,-14.7687 -10.7713,-26.7337 -20.6875,-32.9438 -22.4138,-14.03622 -35.9038,-15.39622 -49.1313,-15.57622 -13.5237,-0.185 -26.78,1.12625 -49.0337,15.57622 -9.7988,6.3613 -15.25,18.26 -20.615,32.9413 20.4462,12.0575 44.28,18.9825 69.735,18.9825"
       inkscape:connector-curvature="0" />
    <path
       id="path4077"
       style="fill:#e7ae87;fill-opacity:1;fill-rule:nonzero;stroke:none"
       d="m 117.5,952.36218 0,39.8125 -0.014,0.1875 c 0,7.59375 8.9538,13.75002 20,13.75002 11.0463,0 20,-6.15627 20,-13.75002 l 0.014,0 0,-40 -40,0"
       inkscape:connector-curvature="0" />
    <path
       id="path4079"
       style="fill:#8c555d;fill-opacity:1;fill-rule:nonzero;stroke:none"
       d="m 116.0925,1011.321 42.8125,0 0,-18.95857 -42.8125,0 0,18.95857 z"
       inkscape:connector-curvature="0" />
    <path
       id="path4081"
       style="fill:#764049;fill-opacity:1;fill-rule:nonzero;stroke:none"
       d="m 157.4987,986.11218 c 0,3.45125 -8.955,6.25 -20,6.25 -11.0462,0 -20,-2.79875 -20,-6.25 l -3.75,18.75002 23.75,-11.25002 23.75,11.25002 -3.75,-18.75002"
       inkscape:connector-curvature="0" />
    <path
       id="path4083"
       style="fill:#22314d;fill-opacity:1;fill-rule:evenodd;stroke:none"
       d="m 137.4987,993.61218 11.25,3.75 -11.25,15.00002 -11.25,-15.00002 11.25,-3.75"
       inkscape:connector-curvature="0" />
    <path
       id="path4085"
       style="fill:#22314d;fill-opacity:1;fill-rule:nonzero;stroke:none"
       d="m 141.2487,1004.8622 -7.5,0 -4.9687,47.2175 c 2.8837,0.18 5.79,0.2825 8.72,0.2825 2.93,0 5.8362,-0.1025 8.72,-0.2837 l -4.9713,-47.2163"
       inkscape:connector-curvature="0" />
    <path
       id="path4087"
       style="fill:#f4cca2;fill-opacity:1;fill-rule:nonzero;stroke:none"
       d="m 225.1362,908.63843 c 0,7.59375 -5.5975,13.75 -12.5,13.75 -6.9037,0 -12.5012,-6.15625 -12.5012,-13.75 0,-7.59375 5.5975,-13.75 12.5012,-13.75 6.9025,0 12.5,6.15625 12.5,13.75"
       inkscape:connector-curvature="0" />
    <path
       id="path4089"
       style="fill:#f4cca2;fill-opacity:1;fill-rule:nonzero;stroke:none"
       d="m 75.1362,908.63843 c 0,7.59375 -5.5975,13.75 -12.5,13.75 -6.9037,0 -12.5012,-6.15625 -12.5012,-13.75 0,-7.59375 5.5975,-13.75 12.5012,-13.75 6.9025,0 12.5,6.15625 12.5,13.75"
       inkscape:connector-curvature="0" />
    <path
       id="path4091"
       style="fill:#fcdaae;fill-opacity:1;fill-rule:nonzero;stroke:none"
       d="m 212.4862,908.61218 c 0,41.42125 -33.5787,75 -75,75 -41.4212,0 -75,-33.57875 -75,-75 0,-41.42125 33.5788,-75 75,-75 41.4213,0 75,33.57875 75,75"
       inkscape:connector-curvature="0" />
    <path
       id="path4093"
       style="fill:#4a4962;fill-opacity:1;fill-rule:nonzero;stroke:none"
       d="m 116.25,897.98718 c 0,3.10625 -2.5188,5.625 -5.625,5.625 -3.1063,0 -5.625,-2.51875 -5.625,-5.625 0,-3.10625 2.5187,-5.625 5.625,-5.625 3.1062,0 5.625,2.51875 5.625,5.625"
       inkscape:connector-curvature="0" />
    <path
       id="path4095"
       style="fill:#ffffff;fill-opacity:1;fill-rule:nonzero;stroke:none"
       d="m 113.75,896.73718 c 0,1.03625 -0.84,1.875 -1.875,1.875 -1.035,0 -1.875,-0.83875 -1.875,-1.875 0,-1.03625 0.84,-1.875 1.875,-1.875 1.035,0 1.875,0.83875 1.875,1.875"
       inkscape:connector-curvature="0" />
    <path
       id="path4097"
       style="fill:#4a4962;fill-opacity:1;fill-rule:nonzero;stroke:none"
       d="m 170,897.98718 c 0,3.10625 -2.5188,5.625 -5.625,5.625 -3.1063,0 -5.625,-2.51875 -5.625,-5.625 0,-3.10625 2.5187,-5.625 5.625,-5.625 3.1062,0 5.625,2.51875 5.625,5.625"
       inkscape:connector-curvature="0" />
    <path
       id="path4099"
       style="fill:#ffffff;fill-opacity:1;fill-rule:nonzero;stroke:none"
       d="m 167.5,896.73718 c 0,1.03625 -0.84,1.875 -1.875,1.875 -1.035,0 -1.875,-0.83875 -1.875,-1.875 0,-1.03625 0.84,-1.875 1.875,-1.875 1.035,0 1.875,0.83875 1.875,1.875"
       inkscape:connector-curvature="0" />
    <path
       id="path4101"
       style="fill:#e5825a;fill-opacity:1;fill-rule:nonzero;stroke:none"
       d="m 137.6675,969.86218 c 9.875,0 17.9675,-7.95875 18.6962,-17.37 0.057,-0.73875 -0.505,-1.38 -1.2475,-1.38 l -34.8987,0 c -0.7413,0 -1.3038,0.64125 -1.2463,1.38 0.7275,9.41125 8.82,17.37 18.6963,17.37"
       inkscape:connector-curvature="0" />
    <path
       id="path4103"
       style="fill:#f7c193;fill-opacity:1;fill-rule:nonzero;stroke:none"
       d="m 135,938.61218 -7.5,0 c -0.39,0 -0.7588,-0.1825 -0.995,-0.49375 -0.2363,-0.31125 -0.3138,-0.715 -0.2088,-1.09125 l 6.25,-22.5 c 0.1775,-0.64125 0.8263,-1.03125 1.48,-0.885 0.65,0.14875 1.0713,0.78 0.955,1.4375 l -3.4912,19.7825 3.51,0 c 0.69,0 1.25,0.55875 1.25,1.25 l 0,1.25 c 0,0.69125 -0.56,1.25 -1.25,1.25"
       inkscape:connector-curvature="0" />
    <path
       id="path4105"
       style="fill:#f0531d;fill-opacity:1;fill-rule:nonzero;stroke:none"
       d="m 65,918.61218 -2.5,0 c 0,0 -0.39,-13.125 -5,-21.875 -4.6088,-8.75 -2.265,-22.11 1.25,-30.3125 3.5162,-8.20375 5.625,-6.71875 10,-20.15625 4.375,-13.4375 2.5,-21.32875 26.25,-28.82875 23.75,-7.5 21.25,-11.28875 35,-12.53875 13.75,-1.25 17.5,-1.89375 36.25,6.23125 18.75,8.125 23.125,12.49 32.5,14.99 9.375,2.5 13.75,11.5575 13.75,18.745 0,7.1875 -4.0625,16.2475 0,22.4975 4.0625,6.25 6.7187,18.905 5,28.12375 -1.7188,9.21875 -5.0225,23.12375 -5.0225,23.12375 l -2.4775,0 c 0,0 1.25,-11.25 -1.25,-20.9375 -2.5,-9.6875 -3.4375,-13.90625 -3.75,-20.3125 -0.3125,-6.40625 -6.25,-13.75 -20,-12.5 -13.75,1.25 -11.4063,0.46875 -23.75,-7.5 -12.3438,-7.96875 -30.625,-2.03125 -37.5,2.5 -6.875,4.53125 -22.6563,0.46875 -31.25,-1.25 -8.5938,-1.71875 -19.6875,11.09375 -21.25,20 -1.5625,8.90625 -2.8125,10.15875 -5,15.315 -2.1875,5.15625 -1.25,24.685 -1.25,24.685"
       inkscape:connector-curvature="0" />
    <path
       id="path4107"
       style="fill:#e7ae87;fill-opacity:1;fill-rule:nonzero;stroke:none"
       d="m 157.5,925.48718 c 0,1.035 -0.84,1.875 -1.875,1.875 -1.035,0 -1.875,-0.84 -1.875,-1.875 0,-1.035 0.84,-1.875 1.875,-1.875 1.035,0 1.875,0.84 1.875,1.875"
       inkscape:connector-curvature="0" />
    <path
       id="path4109"
       style="fill:#e7ae87;fill-opacity:1;fill-rule:nonzero;stroke:none"
       d="m 168.75,934.23718 c 0,1.035 -0.84,1.875 -1.875,1.875 -1.035,0 -1.875,-0.84 -1.875,-1.875 0,-1.035 0.84,-1.875 1.875,-1.875 1.035,0 1.875,0.84 1.875,1.875"
       inkscape:connector-curvature="0" />
    <path
       id="path4111"
       style="fill:#e7ae87;fill-opacity:1;fill-rule:nonzero;stroke:none"
       d="m 181.25,924.23718 c 0,1.035 -0.84,1.875 -1.875,1.875 -1.035,0 -1.875,-0.84 -1.875,-1.875 0,-1.035 0.84,-1.875 1.875,-1.875 1.035,0 1.875,0.84 1.875,1.875"
       inkscape:connector-curvature="0" />
    <path
       id="path4113"
       style="fill:#e7ae87;fill-opacity:1;fill-rule:nonzero;stroke:none"
       d="m 117.5,925.48718 c 0,1.035 0.84,1.875 1.875,1.875 1.035,0 1.875,-0.84 1.875,-1.875 0,-1.035 -0.84,-1.875 -1.875,-1.875 -1.035,0 -1.875,0.84 -1.875,1.875"
       inkscape:connector-curvature="0" />
    <path
       id="path4115"
       style="fill:#e7ae87;fill-opacity:1;fill-rule:nonzero;stroke:none"
       d="m 106.25,934.23718 c 0,1.035 0.84,1.875 1.875,1.875 1.035,0 1.875,-0.84 1.875,-1.875 0,-1.035 -0.84,-1.875 -1.875,-1.875 -1.035,0 -1.875,0.84 -1.875,1.875"
       inkscape:connector-curvature="0" />
    <path
       id="path4117"
       style="fill:#e7ae87;fill-opacity:1;fill-rule:nonzero;stroke:none"
       d="m 93.75,924.23718 c 0,1.035 0.84,1.875 1.875,1.875 1.035,0 1.875,-0.84 1.875,-1.875 0,-1.035 -0.84,-1.875 -1.875,-1.875 -1.035,0 -1.875,0.84 -1.875,1.875"
       inkscape:connector-curvature="0" />
  </g>
</svg>
