<?xml version="1.0" encoding="UTF-8" standalone="no"?>
<!-- Created with Inkscape (http://www.inkscape.org/) -->

<svg
   xmlns:dc="http://purl.org/dc/elements/1.1/"
   xmlns:cc="http://creativecommons.org/ns#"
   xmlns:rdf="http://www.w3.org/1999/02/22-rdf-syntax-ns#"
   xmlns:svg="http://www.w3.org/2000/svg"
   xmlns="http://www.w3.org/2000/svg"
   xmlns:sodipodi="http://sodipodi.sourceforge.net/DTD/sodipodi-0.dtd"
   xmlns:inkscape="http://www.inkscape.org/namespaces/inkscape"
   version="1.1"
   width="275"
   height="275"
   id="svg2"
   inkscape:version="0.48.5 r10040"
   sodipodi:docname="user_andres.svg">
  <sodipodi:namedview
     pagecolor="#ffffff"
     bordercolor="#666666"
     borderopacity="1"
     objecttolerance="10"
     gridtolerance="10"
     guidetolerance="10"
     inkscape:pageopacity="0"
     inkscape:pageshadow="2"
     inkscape:window-width="1842"
     inkscape:window-height="1047"
     id="namedview40"
     showgrid="false"
     inkscape:zoom="3.0581816"
     inkscape:cx="122.53875"
     inkscape:cy="133.68121"
     inkscape:window-x="-8"
     inkscape:window-y="-8"
     inkscape:window-maximized="1"
     inkscape:current-layer="svg2" />
  <defs
     id="defs4">
    <clipPath
       id="clipPath3009">
      <path
         d="M 7000,1100 C 7000,492.488 6507.51,0 5900,0 5292.49,0 4800,492.488 4800,1100 c 0,607.51 492.49,1100 1100,1100 607.51,0 1100,-492.49 1100,-1100"
         id="path3011" />
    </clipPath>
  </defs>
  <metadata
     id="metadata7">
    <rdf:RDF>
      <cc:Work
         rdf:about="">
        <dc:format>image/svg+xml</dc:format>
        <dc:type
           rdf:resource="http://purl.org/dc/dcmitype/StillImage" />
        <dc:title />
      </cc:Work>
    </rdf:RDF>
  </metadata>
  <path
     inkscape:connector-curvature="0"
     style="fill:#fbfcfc;fill-opacity:1;fill-rule:evenodd;stroke:none"
     id="path2999"
     d="M 275,137.5 C 275,213.439 213.43875,275.00002 137.5,275.00002 61.56125,275.00002 0,213.439 0,137.5 0,61.56125 61.56125,0 137.5,0 213.43875,0 275,61.56125 275,137.5" />
  <path
     inkscape:connector-curvature="0"
     style="fill:#fbfcfc;fill-opacity:1;fill-rule:evenodd;stroke:none"
     id="path3041"
     d="M 275,137.50001 C 275,213.43876 213.43875,275.00002 137.5,275.00002 61.56125,275.00002 0,213.43876 0,137.50001 0,61.56126 61.56125,1e-5 137.5,1e-5 c 75.93875,0 137.5,61.56125 137.5,137.5" />
  <path
     inkscape:connector-curvature="0"
     style="fill:#3aae9b;fill-opacity:1;fill-rule:evenodd;stroke:none"
     id="path3071"
     d="m 137.5,275.00002 c 25.45375,0 49.28625,-6.925 69.7325,-18.98 -5.34,-14.7687 -10.77125,-26.7337 -20.6875,-32.9438 -22.41375,-14.03621 -35.90375,-15.39621 -49.13125,-15.57621 -13.52375,-0.185 -26.78,1.12625 -49.03375,15.57621 -9.79875,6.3613 -15.25,18.2601 -20.615,32.9413 20.44625,12.0575 44.28,18.9825 69.735,18.9825" />
  <path
     inkscape:connector-curvature="0"
     style="fill:#e7ae87;fill-opacity:1;fill-rule:nonzero;stroke:none"
     id="path3073"
     d="m 117.5,175.00001 0,39.8125 -0.0138,0.1875 c 0,7.59375 8.95375,13.75001 20,13.75001 11.04625,0 20,-6.15626 20,-13.75001 l 0.0137,0 0,-40 -40,0" />
  <path
     inkscape:connector-curvature="0"
     style="fill:#3aae9b;fill-opacity:1;fill-rule:nonzero;stroke:none"
     id="path3075"
     d="m 116.45875,233.95882 42.8125,0 0,-18.95856 -42.8125,0 0,18.95856 z" />
  <path
     inkscape:connector-curvature="0"
     style="fill:#2b7c80;fill-opacity:1;fill-rule:nonzero;stroke:none"
     id="path3077"
     d="m 157.5,208.75001 c 0,3.45125 -8.95375,6.25 -20,6.25 -11.04625,0 -20,-2.79875 -20,-6.25 l -3.75,18.75001 23.75,-11.25001 23.75,11.25001 -3.75,-18.75001" />
  <path
     inkscape:connector-curvature="0"
     style="fill:#2b7c80;fill-opacity:1;fill-rule:nonzero;stroke:none"
     id="path3079"
     d="m 143.75,215.00001 -12.5,0 0,59.84251 c 2.07375,0.094 4.15375,0.1575 6.25,0.1575 2.09625,0 4.17625,-0.064 6.25,-0.1575 l 0,-59.84251" />
  <path
     inkscape:connector-curvature="0"
     style="fill:#ffffff;fill-opacity:1;fill-rule:nonzero;stroke:none"
     id="path3081"
     d="m 138.75,220.00001 c 0,0.69 -0.56,1.25 -1.25,1.25 -0.69,0 -1.25,-0.56 -1.25,-1.25 0,-0.69 0.56,-1.25 1.25,-1.25 0.69,0 1.25,0.56 1.25,1.25" />
  <path
     inkscape:connector-curvature="0"
     style="fill:#ffffff;fill-opacity:1;fill-rule:nonzero;stroke:none"
     id="path3083"
     d="m 138.75,243.75002 c 0,0.69 -0.56,1.25 -1.25,1.25 -0.69,0 -1.25,-0.56 -1.25,-1.25 0,-0.69 0.56,-1.25 1.25,-1.25 0.69,0 1.25,0.56 1.25,1.25" />
  <path
     inkscape:connector-curvature="0"
     style="fill:#ffffff;fill-opacity:1;fill-rule:nonzero;stroke:none"
     id="path3085"
     d="m 138.75,267.50002 c 0,0.69 -0.56,1.25 -1.25,1.25 -0.69,0 -1.25,-0.56 -1.25,-1.25 0,-0.69 0.56,-1.25 1.25,-1.25 0.69,0 1.25,0.56 1.25,1.25" />
  <path
     inkscape:connector-curvature="0"
     style="fill:#2b7c80;fill-opacity:1;fill-rule:nonzero;stroke:none"
     id="path3087"
     d="m 156.25,240.00002 0,11.25 c 0,4.8325 4.4775,8.75 10,8.75 5.5225,0 10,-3.9175 10,-8.75 l 0,-11.25 -20,0" />
  <path
     inkscape:connector-curvature="0"
     style="fill:#f4cca2;fill-opacity:1;fill-rule:nonzero;stroke:none"
     id="path3093"
     d="m 75.13625,131.27626 c 0,7.59375 -5.5975,13.75 -12.5,13.75 -6.90375,0 -12.50125,-6.15625 -12.50125,-13.75 0,-7.59375 5.5975,-13.75 12.50125,-13.75 6.9025,0 12.5,6.15625 12.5,13.75" />
  <path
     inkscape:connector-curvature="0"
     style="fill:#f4cca2;fill-opacity:1;fill-rule:nonzero;stroke:none"
     id="path3091"
     d="m 225.13625,131.27626 c 0,7.59375 -5.5975,13.75 -12.5,13.75 -6.90375,0 -12.50125,-6.15625 -12.50125,-13.75 0,-7.59375 5.5975,-13.75 12.50125,-13.75 6.9025,0 12.5,6.15625 12.5,13.75" />
  <path
     inkscape:connector-curvature="0"
     style="fill:#fcdaae;fill-opacity:1;fill-rule:nonzero;stroke:none"
     id="path3089"
     d="m 212.48625,131.25001 c 0,41.42125 -33.57875,75 -75,75 -41.42125,0 -75,-33.57875 -75,-75 0,-41.42125 33.57875,-75 75,-75 41.42125,0 75,33.57875 75,75" />
  <path
     inkscape:connector-curvature="0"
     style="fill:#4a4962;fill-opacity:1;fill-rule:nonzero;stroke:none"
     id="path3095"
     d="m 116.25,120.62501 c 0,3.1075 -2.51875,5.625 -5.625,5.625 -3.10625,0 -5.625,-2.5175 -5.625,-5.625 0,-3.10625 2.51875,-5.625 5.625,-5.625 3.10625,0 5.625,2.51875 5.625,5.625" />
  <path
     inkscape:connector-curvature="0"
     style="fill:#ffffff;fill-opacity:1;fill-rule:nonzero;stroke:none"
     id="path3097"
     d="m 113.75,119.37501 c 0,1.03625 -0.84,1.875 -1.875,1.875 -1.035,0 -1.875,-0.83875 -1.875,-1.875 0,-1.03625 0.84,-1.875 1.875,-1.875 1.035,0 1.875,0.83875 1.875,1.875" />
  <path
     inkscape:connector-curvature="0"
     style="fill:#4a4962;fill-opacity:1;fill-rule:nonzero;stroke:none"
     id="path3099"
     d="m 170,120.62501 c 0,3.1075 -2.51875,5.625 -5.625,5.625 -3.10625,0 -5.625,-2.5175 -5.625,-5.625 0,-3.10625 2.51875,-5.625 5.625,-5.625 3.10625,0 5.625,2.51875 5.625,5.625" />
  <path
     inkscape:connector-curvature="0"
     style="fill:#ffffff;fill-opacity:1;fill-rule:nonzero;stroke:none"
     id="path3101"
     d="m 167.5,119.37501 c 0,1.03625 -0.84,1.875 -1.875,1.875 -1.03625,0 -1.875,-0.83875 -1.875,-1.875 0,-1.03625 0.83875,-1.875 1.875,-1.875 1.035,0 1.875,0.83875 1.875,1.875" />
  <path
     inkscape:connector-curvature="0"
     style="fill:#e5825a;fill-opacity:1;fill-rule:nonzero;stroke:none"
     id="path3103"
     d="m 137.6675,192.50001 c 9.875,0 17.9675,-7.95875 18.69625,-17.37 0.0575,-0.73875 -0.505,-1.38 -1.2475,-1.38 l -34.89875,0 c -0.74125,0 -1.30375,0.64125 -1.24625,1.38 0.7275,9.41125 8.82,17.37 18.69625,17.37" />
  <path
     inkscape:connector-curvature="0"
     style="fill:#f7c193;fill-opacity:1;fill-rule:nonzero;stroke:none"
     id="path3105"
     d="m 135,161.25001 -7.5,0 c -0.39,0 -0.75875,-0.1825 -0.995,-0.49375 -0.23625,-0.31125 -0.31375,-0.715 -0.20875,-1.09125 l 6.25,-22.5 c 0.1775,-0.64125 0.82625,-1.03125 1.48,-0.885 0.65,0.14875 1.07125,0.78 0.955,1.4375 l -3.49125,19.7825 3.51,0 c 0.69,0 1.25,0.55875 1.25,1.25 l 0,1.25 c 0,0.69125 -0.56,1.25 -1.25,1.25" />
  <path
     inkscape:connector-curvature="0"
     style="fill:#64647b;fill-opacity:1;fill-rule:nonzero;stroke:none"
     id="path3109"
     d="m 110.625,126.25001 c -3.10625,0 -5.625,-2.5175 -5.625,-5.625 0,-3.10625 2.51875,-5.625 5.625,-5.625 3.10625,0 5.625,2.51875 5.625,5.625 0,3.1075 -2.51875,5.625 -5.625,5.625 m 1.25,-8.75 c -1.035,0 -1.875,0.83875 -1.875,1.875 0,1.03625 0.84,1.875 1.875,1.875 1.035,0 1.875,-0.83875 1.875,-1.875 0,-1.03625 -0.84,-1.875 -1.875,-1.875" />
  <path
     inkscape:connector-curvature="0"
     style="fill:#ffffff;fill-opacity:1;fill-rule:nonzero;stroke:none"
     id="path3111"
     d="m 111.875,121.25001 c -1.035,0 -1.875,-0.83875 -1.875,-1.875 0,-1.03625 0.84,-1.875 1.875,-1.875 1.035,0 1.875,0.83875 1.875,1.875 0,1.03625 -0.84,1.875 -1.875,1.875" />
  <path
     inkscape:connector-curvature="0"
     style="fill:#64647b;fill-opacity:1;fill-rule:nonzero;stroke:none"
     id="path3117"
     d="m 164.375,126.25001 c -3.10625,0 -5.625,-2.5175 -5.625,-5.625 0,-3.10625 2.51875,-5.625 5.625,-5.625 3.10625,0 5.625,2.51875 5.625,5.625 0,3.1075 -2.51875,5.625 -5.625,5.625 m 1.25,-8.75 c -1.03625,0 -1.875,0.83875 -1.875,1.875 0,1.03625 0.83875,1.875 1.875,1.875 1.035,0 1.875,-0.83875 1.875,-1.875 0,-1.03625 -0.84,-1.875 -1.875,-1.875" />
  <path
     inkscape:connector-curvature="0"
     style="fill:#ffffff;fill-opacity:1;fill-rule:nonzero;stroke:none"
     id="path3119"
     d="m 165.625,121.25001 c -1.03625,0 -1.875,-0.83875 -1.875,-1.875 0,-1.03625 0.83875,-1.875 1.875,-1.875 1.035,0 1.875,0.83875 1.875,1.875 0,1.03625 -0.84,1.875 -1.875,1.875" />
  <path
     style="fill:#ff00ff;fill-opacity:1;stroke:none"
     d="m 124.80361,104.72943 -32.754151,10.04737 -7.905373,-8.03435 35.342834,-6.48157 z"
     id="path3049"
     inkscape:connector-curvature="0" />
  <path
     inkscape:connector-curvature="0"
     id="path3823"
     d="m 148.23446,104.72943 32.75415,10.04737 7.90537,-8.03435 -35.34283,-6.48157 z"
     style="fill:#ff00ff;fill-opacity:1;stroke:none" />
  <path
     inkscape:connector-curvature="0"
     style="fill:#ff00ff;fill-opacity:1;fill-rule:evenodd;stroke:none"
     id="path3129"
     d="m 137.48625,28.75001 c -49.205,0 -61.0275,19.79125 -61.23625,35 -7.1875,1.71875 -20,5.3125 -20,46.25 0,3.09 0.18875,6.13375 0.52375,9.13375 1.74875,-1.02375 3.7425,-1.6075 5.8625,-1.6075 0.37625,0 0.74625,0.025 1.11375,0.0612 2.76,-14.9825 9.97625,-28.3975 20.2125,-38.83875 21.9525,18.51375 44.78125,20.43625 58.5375,21.25125 -3.95875,-4.6875 -5,-11.25 -5,-11.25 0,0 6.3475,6.875 34.26375,14.6875 27.9175,7.8125 40.73625,20.3125 40.73625,20.3125 0,0 -0.17,-2.3225 -0.65,-6.1725 0.26125,-0.02 0.52,-0.0512 0.78625,-0.0512 2.0175,0 3.91875,0.53875 5.60625,1.4725 0.32625,-2.95625 0.5075,-5.95625 0.5075,-8.99875 0,-44.8725 -36.39,-81.25 -81.26375,-81.25" />
</svg>
