<?xml version="1.0" encoding="UTF-8" standalone="no"?>
<!-- Created with Inkscape (http://www.inkscape.org/) -->

<svg
   xmlns:dc="http://purl.org/dc/elements/1.1/"
   xmlns:cc="http://creativecommons.org/ns#"
   xmlns:rdf="http://www.w3.org/1999/02/22-rdf-syntax-ns#"
   xmlns:svg="http://www.w3.org/2000/svg"
   xmlns="http://www.w3.org/2000/svg"
   xmlns:sodipodi="http://sodipodi.sourceforge.net/DTD/sodipodi-0.dtd"
   xmlns:inkscape="http://www.inkscape.org/namespaces/inkscape"
   width="275"
   height="275"
   id="svg2"
   version="1.1"
   inkscape:version="0.48.5 r10040"
   sodipodi:docname="user_6.svg">
  <defs
     id="defs4">
    <clipPath
       id="clipPath3009"
       clipPathUnits="userSpaceOnUse">
      <path
         id="path3011"
         clip-rule="evenodd"
         d="M 7000,1100 C 7000,492.488 6507.51,0 5900,0 5292.49,0 4800,492.488 4800,1100 c 0,607.51 492.49,1100 1100,1100 607.51,0 1100,-492.49 1100,-1100"
         inkscape:connector-curvature="0" />
    </clipPath>
    <clipPath
       id="clipPath3951"
       clipPathUnits="userSpaceOnUse">
      <path
         id="path3953"
         clip-rule="evenodd"
         d="M 7000,1100 C 7000,492.488 6507.51,0 5900,0 5292.49,0 4800,492.488 4800,1100 c 0,607.51 492.49,1100 1100,1100 607.51,0 1100,-492.49 1100,-1100" />
    </clipPath>
  </defs>
  <sodipodi:namedview
     id="base"
     pagecolor="#ffffff"
     bordercolor="#666666"
     borderopacity="1.0"
     inkscape:pageopacity="0.0"
     inkscape:pageshadow="2"
     inkscape:zoom="0.5"
     inkscape:cx="1221.4286"
     inkscape:cy="-10.00002"
     inkscape:document-units="px"
     inkscape:current-layer="layer1"
     showgrid="false"
     inkscape:window-width="1842"
     inkscape:window-height="1047"
     inkscape:window-x="-8"
     inkscape:window-y="-8"
     inkscape:window-maximized="1" />
  <metadata
     id="metadata7">
    <rdf:RDF>
      <cc:Work
         rdf:about="">
        <dc:format>image/svg+xml</dc:format>
        <dc:type
           rdf:resource="http://purl.org/dc/dcmitype/StillImage" />
        <dc:title></dc:title>
      </cc:Work>
    </rdf:RDF>
  </metadata>
  <g
     inkscape:label="Layer 1"
     inkscape:groupmode="layer"
     id="layer1"
     transform="translate(0,-777.36218)">
    <path
       id="path4253"
       style="fill:#fbfcfc;fill-opacity:1;fill-rule:evenodd;stroke:none"
       d="m 275,914.86218 c 0,75.939 -61.5613,137.50002 -137.5,137.50002 -75.9388,0 -137.5,-61.56102 -137.5,-137.50002 0,-75.9387 61.5612,-137.5 137.5,-137.5 75.9387,0 137.5,61.5613 137.5,137.5"
       inkscape:connector-curvature="0" />
    <path
       id="path4255"
       style="fill:#ffffff;fill-opacity:1;fill-rule:evenodd;stroke:none"
       d="m 137.5,1052.3622 c 25.4537,0 49.2862,-6.9248 69.7325,-18.98 -5.34,-14.7685 -10.7713,-26.7339 -20.6875,-32.9439 -22.4138,-14.03612 -35.9038,-14.14602 -49.1313,-14.32612 -13.5237,-0.185 -26.78,-0.1235 -49.0337,14.32612 -9.7988,6.3614 -15.25,18.2603 -20.615,32.9415 20.4462,12.0576 44.28,18.9824 69.735,18.9824"
       inkscape:connector-curvature="0" />
    <path
       id="path4257"
       style="fill:#f4cca2;fill-opacity:1;fill-rule:evenodd;stroke:none"
       d="m 118.75,954.86218 0,37.5 c 0,6.9038 8.395,12.50002 18.75,12.50002 10.355,0 18.75,-5.59622 18.75,-12.50002 l 0,-37.5 -37.5,0"
       inkscape:connector-curvature="0" />
    <path
       id="path4259"
       style="fill:#366cbd;fill-opacity:1;fill-rule:evenodd;stroke:none"
       d="m 161.64,1050.2357 c 16.3812,-2.9033 31.7637,-8.6997 45.5925,-16.8535 -5.34,-14.7685 -10.7713,-26.7339 -20.6875,-32.9439 -5.2388,-3.27972 -9.985,-5.79232 -14.3588,-7.72982 L 161.64,1050.2357"
       inkscape:connector-curvature="0" />
    <path
       id="path4261"
       style="fill:#366cbd;fill-opacity:1;fill-rule:evenodd;stroke:none"
       d="m 102.5287,992.53458 c -4.31,1.9814 -8.985,4.5512 -14.1487,7.90372 -9.7988,6.3614 -15.25,18.2603 -20.615,32.9415 13.475,7.9463 28.4287,13.645 44.3412,16.6196 l -9.5775,-57.46482"
       inkscape:connector-curvature="0" />
    <path
       id="path4263"
       style="fill:#f4cca2;fill-opacity:1;fill-rule:nonzero;stroke:none"
       d="m 222.5,908.63848 c 0,7.5937 -5.5963,13.75 -12.5,13.75 -6.9038,0 -12.5,-6.1563 -12.5,-13.75 0,-7.5938 5.5962,-13.75 12.5,-13.75 6.9037,0 12.5,6.1562 12.5,13.75"
       inkscape:connector-curvature="0" />
    <path
       id="path4265"
       style="fill:#f4cca2;fill-opacity:1;fill-rule:nonzero;stroke:none"
       d="m 77.5,908.63848 c 0,7.5937 -5.5963,13.75 -12.5,13.75 -6.9038,0 -12.5,-6.1563 -12.5,-13.75 0,-7.5938 5.5962,-13.75 12.5,-13.75 6.9037,0 12.5,6.1562 12.5,13.75"
       inkscape:connector-curvature="0" />
    <path
       id="path4267"
       style="fill:#f3ca64;fill-opacity:1;fill-rule:nonzero;stroke:none"
       d="M 136.8362,806.11468 C 88.5912,806.47218 50,845.36468 50,893.61218 c 0,42.4649 39.5337,77.814 88.1637,77.4975 48.245,-0.3125 86.8363,-35.2939 86.8363,-77.4975 0,-48.5462 -39.5338,-87.8575 -88.1638,-87.4975"
       inkscape:connector-curvature="0" />
    <path
       id="path4269"
       style="fill:#f3ca64;fill-opacity:1;fill-rule:nonzero;stroke:none"
       d="m 217.4437,914.86218 c 0,0 28.125,1.5975 28.125,33.2388 0,31.6401 -28.125,36.7538 -28.125,53.69232 0,16.94 7.67,25.5689 7.67,25.5689 0,0 -30.6825,-8.6289 -30.6825,-38.35252 0,-29.7227 28.125,-38.6714 28.125,-51.1362 0,-12.4638 -5.1125,-23.0113 -5.1125,-23.0113"
       inkscape:connector-curvature="0" />
    <path
       id="path4271"
       style="fill:#1f6532;fill-opacity:1;fill-rule:nonzero;stroke:none"
       d="m 229.1387,916.90968 -9.7225,9.7238 c -0.9725,0.9713 -2.5637,0.9713 -3.535,0 l -2.6525,-2.6525 c -0.9712,-0.9725 -0.9712,-2.5625 0,-3.535 l 9.7238,-9.7225 c 0.9712,-0.9725 2.5625,-0.9725 3.535,0 l 2.6512,2.6512 c 0.9725,0.9725 0.9725,2.5638 0,3.535"
       inkscape:connector-curvature="0" />
    <path
       id="path4273"
       style="fill:#f3ca64;fill-opacity:1;fill-rule:nonzero;stroke:none"
       d="m 57.5562,914.86218 c 0,0 -28.125,1.5975 -28.125,33.2388 0,31.6401 28.125,36.7538 28.125,53.69232 0,16.94 -7.67,25.5689 -7.67,25.5689 0,0 30.6825,-8.6289 30.6825,-38.35252 0,-29.7227 -28.125,-38.6714 -28.125,-51.1362 0,-12.4638 5.1125,-23.0113 5.1125,-23.0113"
       inkscape:connector-curvature="0" />
    <path
       id="path4275"
       style="fill:#1f6532;fill-opacity:1;fill-rule:nonzero;stroke:none"
       d="m 45.8612,916.90968 9.7225,9.7238 c 0.9725,0.9713 2.5638,0.9713 3.535,0 l 2.6525,-2.6525 c 0.9713,-0.9725 0.9713,-2.5625 0,-3.535 l -9.7237,-9.7225 c -0.9713,-0.9725 -2.5625,-0.9725 -3.535,0 l -2.6513,2.6512 c -0.9725,0.9725 -0.9725,2.5638 0,3.535"
       inkscape:connector-curvature="0" />
    <path
       id="path4277"
       style="fill:#fcdaae;fill-opacity:1;fill-rule:nonzero;stroke:none"
       d="m 211.2362,908.61218 c 0,40.7315 -33.0187,73.75 -73.75,73.75 -40.7312,0 -73.75,-33.0185 -73.75,-73.75 0,-40.7312 33.0188,-73.75 73.75,-73.75 40.7313,0 73.75,33.0188 73.75,73.75"
       inkscape:connector-curvature="0" />
    <path
       id="path4279"
       style="fill:#f3ca64;fill-opacity:1;fill-rule:nonzero;stroke:none"
       d="m 179.75,816.99218 c -12.7088,-7.0237 -27.34,-10.9925 -42.9138,-10.8775 -48.245,0.3575 -86.8362,39.25 -86.8362,87.4975 0,2.9475 0.2087,5.8563 0.58,8.7263 0.635,0.01 1.2687,0.024 1.9062,0.024 57.4863,0 106.7238,-35.2825 127.2638,-85.37"
       inkscape:connector-curvature="0" />
    <path
       id="path4281"
       style="fill:#f3ca64;fill-opacity:1;fill-rule:nonzero;stroke:none"
       d="m 140.425,806.17968 c -11.5488,0.3238 -22.6125,2.4813 -32.9113,6.21 20.5013,45.1163 65.1425,76.935 117.4288,78.9675 -1.175,-46.305 -38.2988,-83.6575 -84.5175,-85.1775"
       inkscape:connector-curvature="0" />
    <path
       id="path4283"
       style="fill:#4a4962;fill-opacity:1;fill-rule:nonzero;stroke:none"
       d="m 116.25,897.98718 c 0,3.1063 -2.5188,5.625 -5.625,5.625 -3.1063,0 -5.625,-2.5187 -5.625,-5.625 0,-3.1062 2.5187,-5.625 5.625,-5.625 3.1062,0 5.625,2.5188 5.625,5.625"
       inkscape:connector-curvature="0" />
    <path
       id="path4285"
       style="fill:#ffffff;fill-opacity:1;fill-rule:nonzero;stroke:none"
       d="m 113.75,896.73718 c 0,1.035 -0.84,1.875 -1.875,1.875 -1.035,0 -1.875,-0.84 -1.875,-1.875 0,-1.035 0.84,-1.875 1.875,-1.875 1.035,0 1.875,0.84 1.875,1.875"
       inkscape:connector-curvature="0" />
    <path
       id="path4287"
       style="fill:#4a4962;fill-opacity:1;fill-rule:nonzero;stroke:none"
       d="m 170,897.98718 c 0,3.1063 -2.5188,5.625 -5.625,5.625 -3.1063,0 -5.625,-2.5187 -5.625,-5.625 0,-3.1062 2.5187,-5.625 5.625,-5.625 3.1062,0 5.625,2.5188 5.625,5.625"
       inkscape:connector-curvature="0" />
    <path
       id="path4289"
       style="fill:#ffffff;fill-opacity:1;fill-rule:nonzero;stroke:none"
       d="m 167.5,896.73718 c 0,1.035 -0.84,1.875 -1.875,1.875 -1.035,0 -1.875,-0.84 -1.875,-1.875 0,-1.035 0.84,-1.875 1.875,-1.875 1.035,0 1.875,0.84 1.875,1.875"
       inkscape:connector-curvature="0" />
    <path
       id="path4291"
       style="fill:#f7c193;fill-opacity:1;fill-rule:nonzero;stroke:none"
       d="m 135,938.61218 -7.5,0 c -0.39,0 -0.7588,-0.1826 -0.995,-0.4936 -0.2363,-0.3115 -0.3138,-0.7154 -0.2088,-1.0914 l 6.25,-22.5 c 0.1775,-0.6412 0.8263,-1.0312 1.48,-0.885 0.65,0.1488 1.0713,0.78 0.955,1.4375 l -3.4912,19.7825 3.51,0 c 0.69,0 1.25,0.5586 1.25,1.25 l 0,1.25 c 0,0.6914 -0.56,1.25 -1.25,1.25"
       inkscape:connector-curvature="0" />
    <path
       id="path4293"
       style="fill:#e5825a;fill-opacity:1;fill-rule:nonzero;stroke:none"
       d="m 126.1125,955.69568 c -0.82,0.2203 -1.1875,1.1763 -0.7325,1.894 4.2312,6.6885 12.6212,10.4498 20.7675,8.2676 8.1462,-2.1841 13.53,-9.6352 13.8512,-17.544 0.035,-0.8486 -0.7612,-1.4936 -1.5812,-1.2738 l -32.305,8.6562"
       inkscape:connector-curvature="0" />
  </g>
</svg>
