<?xml version="1.0" encoding="UTF-8" standalone="no"?>
<!-- Created with Inkscape (http://www.inkscape.org/) -->

<svg
   xmlns:dc="http://purl.org/dc/elements/1.1/"
   xmlns:cc="http://creativecommons.org/ns#"
   xmlns:rdf="http://www.w3.org/1999/02/22-rdf-syntax-ns#"
   xmlns:svg="http://www.w3.org/2000/svg"
   xmlns="http://www.w3.org/2000/svg"
   xmlns:sodipodi="http://sodipodi.sourceforge.net/DTD/sodipodi-0.dtd"
   xmlns:inkscape="http://www.inkscape.org/namespaces/inkscape"
   width="275"
   height="275"
   id="svg2"
   version="1.1"
   inkscape:version="0.48.5 r10040"
   sodipodi:docname="user_4.svg">
  <defs
     id="defs4">
    <clipPath
       id="clipPath3009"
       clipPathUnits="userSpaceOnUse">
      <path
         id="path3011"
         clip-rule="evenodd"
         d="M 7000,1100 C 7000,492.488 6507.51,0 5900,0 5292.49,0 4800,492.488 4800,1100 c 0,607.51 492.49,1100 1100,1100 607.51,0 1100,-492.49 1100,-1100"
         inkscape:connector-curvature="0" />
    </clipPath>
    <clipPath
       id="clipPath3951"
       clipPathUnits="userSpaceOnUse">
      <path
         id="path3953"
         clip-rule="evenodd"
         d="M 7000,1100 C 7000,492.488 6507.51,0 5900,0 5292.49,0 4800,492.488 4800,1100 c 0,607.51 492.49,1100 1100,1100 607.51,0 1100,-492.49 1100,-1100" />
    </clipPath>
  </defs>
  <sodipodi:namedview
     id="base"
     pagecolor="#ffffff"
     bordercolor="#666666"
     borderopacity="1.0"
     inkscape:pageopacity="0.0"
     inkscape:pageshadow="2"
     inkscape:zoom="0.5"
     inkscape:cx="1221.4286"
     inkscape:cy="-10.00002"
     inkscape:document-units="px"
     inkscape:current-layer="layer1"
     showgrid="false"
     inkscape:window-width="1842"
     inkscape:window-height="1047"
     inkscape:window-x="-8"
     inkscape:window-y="-8"
     inkscape:window-maximized="1" />
  <metadata
     id="metadata7">
    <rdf:RDF>
      <cc:Work
         rdf:about="">
        <dc:format>image/svg+xml</dc:format>
        <dc:type
           rdf:resource="http://purl.org/dc/dcmitype/StillImage" />
        <dc:title></dc:title>
      </cc:Work>
    </rdf:RDF>
  </metadata>
  <g
     inkscape:label="Layer 1"
     inkscape:groupmode="layer"
     id="layer1"
     transform="translate(0,-777.36218)">
    <path
       id="path3939"
       style="fill:#fbfcfc;fill-opacity:1;fill-rule:evenodd;stroke:none"
       d="m 275,914.86218 c 0,75.939 -61.56125,137.50002 -137.5,137.50002 -75.93875,0 -137.5,-61.56102 -137.5,-137.50002 0,-75.9387 61.56125,-137.5 137.5,-137.5 75.93875,0 137.5,61.5613 137.5,137.5"
       inkscape:connector-curvature="0" />
    <path
       id="path4155"
       style="fill:#d02f23;fill-opacity:1;fill-rule:nonzero;stroke:none"
       d="m 186.90375,806.17598 c -7.81,7.8112 -19.8875,8.3975 -19.8875,8.3975 0,0 0.58625,-12.0775 8.3975,-19.8875 7.81,-7.8113 19.88625,-8.3975 19.88625,-8.3975 0,0 -0.58625,12.0775 -8.39625,19.8875"
       inkscape:connector-curvature="0" />
    <path
       id="path4157"
       style="fill:#d02f23;fill-opacity:1;fill-rule:nonzero;stroke:none"
       d="m 186.46125,822.69848 c -11.045,0 -20,-8.125 -20,-8.125 0,0 8.955,-8.125 20,-8.125 11.04625,0 20,8.125 20,8.125 0,0 -8.95375,8.125 -20,8.125"
       inkscape:connector-curvature="0" />
    <path
       id="path4159"
       style="fill:#f4cca2;fill-opacity:1;fill-rule:evenodd;stroke:none"
       d="m 137.5,1052.3622 c 25.45375,0 49.28625,-6.9248 69.7325,-18.98 -5.34,-14.7685 -10.77125,-26.7339 -20.6875,-32.9439 -22.41375,-14.03612 -35.90375,-14.14602 -49.13125,-14.32612 -13.52375,-0.185 -26.78,-0.1235 -49.03375,14.32612 -9.79875,6.3614 -15.25,18.2603 -20.615,32.9415 20.44625,12.0576 44.28,18.9824 69.735,18.9824"
       inkscape:connector-curvature="0" />
    <path
       id="path4161"
       style="fill:#f4cca2;fill-opacity:1;fill-rule:evenodd;stroke:none"
       d="m 118.75,954.86218 0,37.5 c 0,6.9038 8.395,12.50002 18.75,12.50002 10.355,0 18.75,-5.59622 18.75,-12.50002 l 0,-37.5 -37.5,0"
       inkscape:connector-curvature="0" />
    <path
       id="path4163"
       style="fill:#3e1e14;fill-opacity:1;fill-rule:nonzero;stroke:none"
       d="M 136.83625,806.11468 C 88.59125,806.47218 50,845.36468 50,893.61218 c 0,42.4649 39.53375,77.814 88.16375,77.4975 48.245,-0.3125 86.83625,-35.2939 86.83625,-77.4975 0,-48.5462 -39.53375,-87.8587 -88.16375,-87.4975"
       inkscape:connector-curvature="0" />
    <path
       id="path4165"
       style="fill:#f4cca2;fill-opacity:1;fill-rule:nonzero;stroke:none"
       d="m 222.5,908.63848 c 0,7.5937 -5.59625,13.75 -12.5,13.75 -6.90375,0 -12.5,-6.1563 -12.5,-13.75 0,-7.5938 5.59625,-13.75 12.5,-13.75 6.90375,0 12.5,6.1562 12.5,13.75"
       inkscape:connector-curvature="0" />
    <path
       id="path4167"
       style="fill:#f4cca2;fill-opacity:1;fill-rule:nonzero;stroke:none"
       d="m 77.5,908.63848 c 0,7.5937 -5.59625,13.75 -12.5,13.75 -6.90375,0 -12.5,-6.1563 -12.5,-13.75 0,-7.5938 5.59625,-13.75 12.5,-13.75 6.90375,0 12.5,6.1562 12.5,13.75"
       inkscape:connector-curvature="0" />
    <path
       id="path4169"
       style="fill:#fcdaae;fill-opacity:1;fill-rule:nonzero;stroke:none"
       d="m 211.23625,908.61218 c 0,40.7315 -33.01875,73.75 -73.75,73.75 -40.73125,0 -73.75,-33.0185 -73.75,-73.75 0,-40.7312 33.01875,-73.75 73.75,-73.75 40.73125,0 73.75,33.0188 73.75,73.75"
       inkscape:connector-curvature="0" />
    <path
       id="path4171"
       style="fill:#4a4962;fill-opacity:1;fill-rule:nonzero;stroke:none"
       d="m 116.25,897.98718 c 0,3.1063 -2.51875,5.625 -5.625,5.625 -3.10625,0 -5.625,-2.5187 -5.625,-5.625 0,-3.1062 2.51875,-5.625 5.625,-5.625 3.10625,0 5.625,2.5188 5.625,5.625"
       inkscape:connector-curvature="0" />
    <path
       id="path4173"
       style="fill:#ffffff;fill-opacity:1;fill-rule:nonzero;stroke:none"
       d="m 113.75,896.73718 c 0,1.0363 -0.84,1.875 -1.875,1.875 -1.03625,0 -1.875,-0.8387 -1.875,-1.875 0,-1.035 0.83875,-1.875 1.875,-1.875 1.035,0 1.875,0.84 1.875,1.875"
       inkscape:connector-curvature="0" />
    <path
       id="path4175"
       style="fill:#4a4962;fill-opacity:1;fill-rule:nonzero;stroke:none"
       d="m 170,897.98718 c 0,3.1063 -2.51875,5.625 -5.625,5.625 -3.10625,0 -5.625,-2.5187 -5.625,-5.625 0,-3.1062 2.51875,-5.625 5.625,-5.625 3.10625,0 5.625,2.5188 5.625,5.625"
       inkscape:connector-curvature="0" />
    <path
       id="path4177"
       style="fill:#ffffff;fill-opacity:1;fill-rule:nonzero;stroke:none"
       d="m 167.5,896.73718 c 0,1.0363 -0.84,1.875 -1.875,1.875 -1.035,0 -1.875,-0.8387 -1.875,-1.875 0,-1.035 0.84,-1.875 1.875,-1.875 1.035,0 1.875,0.84 1.875,1.875"
       inkscape:connector-curvature="0" />
    <path
       id="path4179"
       style="fill:#f7c193;fill-opacity:1;fill-rule:nonzero;stroke:none"
       d="m 135,938.61218 -7.5,0 c -0.39,0 -0.75875,-0.1826 -0.995,-0.4936 -0.23625,-0.3115 -0.31375,-0.7154 -0.20875,-1.0914 l 6.25,-22.5 c 0.1775,-0.6412 0.82625,-1.0312 1.48,-0.885 0.65,0.1488 1.07125,0.78 0.955,1.4375 l -3.49125,19.7825 3.51,0 c 0.69,0 1.25,0.5586 1.25,1.25 l 0,1.25 c 0,0.6914 -0.56,1.25 -1.25,1.25"
       inkscape:connector-curvature="0" />
    <path
       id="path4181"
       style="fill:#e5825a;fill-opacity:1;fill-rule:nonzero;stroke:none"
       d="m 120.7775,951.11218 c -0.84875,0 -1.45,0.8286 -1.1975,1.6401 2.35625,7.5548 9.48625,13.3599 17.92,13.3599 8.43375,0 15.56375,-5.8051 17.92,-13.3599 0.2525,-0.8115 -0.34875,-1.6401 -1.1975,-1.6401 l -33.445,0"
       inkscape:connector-curvature="0" />
    <path
       id="path4183"
       style="fill:#fde0ba;fill-opacity:1;fill-rule:nonzero;stroke:none"
       d="m 107.1175,922.78968 c -0.0362,0 -0.0712,0 -0.1075,0 -7.5425,-0.023 -15.925,-2.7225 -18.92125,-8.1137 -4.25875,-7.6663 -5.315,-23.15 0.1475,-26.3738 2.0175,-1.19 8.115,-2.0562 15.005,-2.0562 1.23625,0 2.49875,0.029 3.76875,0.087 8.66875,0.4 17.64,2.2487 20.85625,6.5375 5.305,7.0725 -3.24125,24.3075 -11.34375,28.1387 -2.5075,1.1875 -5.86125,1.78 -9.405,1.78 m 3.5075,-30.4275 c -3.10625,0 -5.625,2.5188 -5.625,5.625 0,3.1063 2.51875,5.625 5.625,5.625 3.10625,0 5.625,-2.5187 5.625,-5.625 0,-3.1062 -2.51875,-5.625 -5.625,-5.625"
       inkscape:connector-curvature="0" />
    <path
       id="path4185"
       style="fill:#64647b;fill-opacity:1;fill-rule:nonzero;stroke:none"
       d="m 110.625,903.61218 c -3.10625,0 -5.625,-2.5187 -5.625,-5.625 0,-3.1062 2.51875,-5.625 5.625,-5.625 3.10625,0 5.625,2.5188 5.625,5.625 0,3.1063 -2.51875,5.625 -5.625,5.625 m 1.25,-8.75 c -1.03625,0 -1.875,0.84 -1.875,1.875 0,1.0363 0.83875,1.875 1.875,1.875 1.035,0 1.875,-0.8387 1.875,-1.875 0,-1.035 -0.84,-1.875 -1.875,-1.875"
       inkscape:connector-curvature="0" />
    <path
       id="path4187"
       style="fill:#ffffff;fill-opacity:1;fill-rule:nonzero;stroke:none"
       d="m 111.875,898.61218 c -1.03625,0 -1.875,-0.8387 -1.875,-1.875 0,-1.035 0.83875,-1.875 1.875,-1.875 1.035,0 1.875,0.84 1.875,1.875 0,1.0363 -0.84,1.875 -1.875,1.875"
       inkscape:connector-curvature="0" />
    <path
       id="path4189"
       style="fill:#fde0ba;fill-opacity:1;fill-rule:nonzero;stroke:none"
       d="m 167.8575,922.78848 c -3.5475,0 -6.89875,-0.5913 -9.4075,-1.7788 -8.10375,-3.8312 -16.64875,-21.0662 -11.34375,-28.1375 3.215,-4.29 12.19,-6.1387 20.85875,-6.5387 1.26875,-0.059 2.5325,-0.086 3.77,-0.086 6.88875,0 12.98375,0.865 15.0025,2.0563 5.4625,3.2237 4.4025,18.7062 0.145,26.3725 -2.99375,5.39 -11.3775,8.0912 -18.9175,8.1125 -0.0362,0 -0.0725,0 -0.1075,0 m -3.4825,-30.4263 c -3.10625,0 -5.625,2.5188 -5.625,5.625 0,3.1063 2.51875,5.625 5.625,5.625 3.10625,0 5.625,-2.5187 5.625,-5.625 0,-3.1062 -2.51875,-5.625 -5.625,-5.625"
       inkscape:connector-curvature="0" />
    <path
       id="path4191"
       style="fill:#64647b;fill-opacity:1;fill-rule:nonzero;stroke:none"
       d="m 164.375,903.61218 c -3.10625,0 -5.625,-2.5187 -5.625,-5.625 0,-3.1062 2.51875,-5.625 5.625,-5.625 3.10625,0 5.625,2.5188 5.625,5.625 0,3.1063 -2.51875,5.625 -5.625,5.625 m 1.25,-8.75 c -1.035,0 -1.875,0.84 -1.875,1.875 0,1.0363 0.84,1.875 1.875,1.875 1.035,0 1.875,-0.8387 1.875,-1.875 0,-1.035 -0.84,-1.875 -1.875,-1.875"
       inkscape:connector-curvature="0" />
    <path
       id="path4193"
       style="fill:#ffffff;fill-opacity:1;fill-rule:nonzero;stroke:none"
       d="m 165.625,898.61218 c -1.035,0 -1.875,-0.8387 -1.875,-1.875 0,-1.035 0.84,-1.875 1.875,-1.875 1.035,0 1.875,0.84 1.875,1.875 0,1.0363 -0.84,1.875 -1.875,1.875"
       inkscape:connector-curvature="0" />
    <path
       id="path4195"
       style="fill:#2e1c14;fill-opacity:1;fill-rule:evenodd;stroke:none"
       d="m 186.05125,914.22968 c -2.8625,5.1525 -10.8775,7.735 -18.08625,7.7563 -3.42875,0.011 -6.67375,-0.555 -9.0975,-1.7013 -7.74625,-3.6625 -15.915,-20.14 -10.845,-26.9012 3.075,-4.1 11.655,-5.8675 19.9425,-6.25 7.97,-0.3713 15.67,0.54 17.94625,1.8825 5.2225,3.0825 4.21,17.8837 0.14,25.2137 z m -69.9475,6.055 c -2.42125,1.1463 -5.6675,1.7125 -9.09375,1.7013 -7.21125,-0.021 -15.225,-2.6038 -18.08875,-7.7563 -4.07125,-7.33 -5.08125,-22.1312 0.14125,-25.2137 2.275,-1.3425 9.97625,-2.2538 17.9475,-1.8825 8.2875,0.3825 16.86375,2.15 19.93875,6.25 5.07125,6.7612 -3.09875,23.2387 -10.845,26.9012 z m 81.35625,-30.565 c -0.13875,-2.3925 -0.23125,-2.65 -3.37875,-3.66 -2.46375,-0.7912 -15.9675,-1.9512 -26.11625,-1.4062 -0.70375,0.038 -1.38875,0.083 -2.05375,0.1387 -9.19125,0.755 -20.2575,4.465 -28.5375,4.6488 -3.52,0.076 -18.04,-3.8063 -28.31125,-4.6488 -0.665,-0.056 -1.3525,-0.1012 -2.0525,-0.1387 -10.14875,-0.5425 -23.65625,0.615 -26.11625,1.4062 -3.15125,1.01 -3.24,1.2675 -3.3825,3.66 -0.13875,2.3975 0.2525,4.45 2.1125,5.0725 2.53625,0.845 2.56,4.0475 4.22625,13.2388 1.51875,8.3737 5.2175,14.995 21.12875,16.1987 0.695,0.051 1.3725,0.082 2.03125,0.091 14.04,0.2037 18.88875,-9.11 20.5025,-12.2063 3.01375,-5.7737 2.08875,-13.7375 9.975,-13.7375 7.88625,0 7.1,7.8225 10.1125,13.5963 1.615,3.0962 6.33625,12.5362 20.365,12.345 0.655,-0.01 1.3325,-0.038 2.03125,-0.089 15.91125,-1.2037 19.60875,-7.825 21.125,-16.1987 1.66875,-9.1913 1.6925,-12.3938 4.2275,-13.2388 1.85875,-0.6225 2.2525,-2.675 2.11125,-5.0725"
       inkscape:connector-curvature="0" />
    <path
       id="path4197"
       style="fill:#5d2714;fill-opacity:1;fill-rule:nonzero;stroke:none"
       d="m 175,814.86218 c 0,20.7113 -16.78875,37.5 -37.5,37.5 -20.71125,0 -37.5,-16.7887 -37.5,-37.5 0,-20.7112 16.78875,-37.5 37.5,-37.5 20.71125,0 37.5,16.7888 37.5,37.5"
       inkscape:connector-curvature="0" />
    <path
       id="path4199"
       style="fill:#ef2f21;fill-opacity:1;fill-rule:nonzero;stroke:none"
       d="m 175,814.86218 c 0,-2.7825 -0.3125,-5.49 -0.8875,-8.1 -11.3225,-5.2275 -23.945,-8.15 -37.25875,-8.15 l -0.0312,0 c -12.835,0 -24.97875,2.885 -35.90125,8.0013 -0.59625,2.655 -0.92125,5.4137 -0.92125,8.2487 0,20.7113 16.78875,37.5 37.5,37.5 20.71125,0 37.5,-16.7887 37.5,-37.5"
       inkscape:connector-curvature="0" />
    <path
       id="path4201"
       style="fill:#3e1e14;fill-opacity:1;fill-rule:nonzero;stroke:none"
       d="m 137.5,881.11218 c 33.40625,0 63.37,-4.9662 83.7625,-12.8237 -10.92125,-36.17 -44.60875,-62.1763 -84.40875,-62.1763 l -0.0312,0 c -39.0925,0 -71.83875,26.6188 -82.8525,62.2638 20.3875,7.8075 50.24875,12.7362 83.53,12.7362"
       inkscape:connector-curvature="0" />
    <path
       id="path4203"
       style="fill:#474645;fill-opacity:1;fill-rule:evenodd;stroke:none"
       d="m 194.0175,1040.2196 3.5075,-28.0634 c -2.87875,-4.5601 -6.21875,-8.4264 -10.33875,-11.1665 -9.41125,14.266 -28.0875,28.9301 -49.68625,28.9301 -21.60125,0 -40.28875,-14.7778 -49.7,-29.0448 -4.155,2.8437 -7.52125,6.6883 -10.43125,11.352 -0.19,0.3852 -0.37875,0.7402 -0.56375,1.0502 l 4.1125,26.9136 c 17.26,7.8076 36.4075,12.1714 56.5825,12.1714 20.15,0 39.27625,-4.354 56.5175,-12.1426"
       inkscape:connector-curvature="0" />
    <path
       id="path4205"
       style="fill:#393737;fill-opacity:1;fill-rule:nonzero;stroke:none"
       d="m 183.75,999.86218 c 0,0 -3.8175,7.60652 -20,17.50002 -15.5575,9.5123 -26.25,10 -26.25,10 0,0 -10.6925,-0.4877 -26.25,-10 -16.1825,-9.8935 -20,-17.50002 -20,-17.50002 0,0 -6.25,3.79492 -6.25,10.00002 0,6.2051 11.2475,31.25 33.75,31.25 10.61125,0 18.0275,-6.7026 18.75,-7.5 0.7225,0.7974 8.13875,7.5 18.75,7.5 22.5025,0 33.75,-25.0449 33.75,-31.25 0,-6.2051 -6.25,-10.00002 -6.25,-10.00002"
       inkscape:connector-curvature="0" />
    <path
       id="path4207"
       style="fill:#ffffff;fill-opacity:1;fill-rule:nonzero;stroke:none"
       d="m 183.75,997.36218 c 0,0 -3.8175,7.60652 -20,17.50002 -15.5575,9.5123 -26.25,10 -26.25,10 0,0 -10.6925,-0.4877 -26.25,-10 -16.1825,-9.8935 -20,-17.50002 -20,-17.50002 0,0 -6.25,3.79492 -6.25,10.00002 0,6.2051 11.2475,31.25 33.75,31.25 10.61125,0 18.0275,-6.7026 18.75,-7.5 0.7225,0.7974 8.13875,7.5 18.75,7.5 22.5025,0 33.75,-25.0449 33.75,-31.25 0,-6.2051 -6.25,-10.00002 -6.25,-10.00002"
       inkscape:connector-curvature="0" />
    <path
       id="path4209"
       style="fill:#7a7b7c;fill-opacity:1;fill-rule:nonzero;stroke:none"
       d="m 118.2675,987.75968 17.95125,21.79742 20.48625,-21.76612 -0.91,-0.8575 -19.51375,20.73382 -17.04875,-20.70262 -0.965,0.795"
       inkscape:connector-curvature="0" />
    <path
       id="path4211"
       style="fill:#db621c;fill-opacity:1;fill-rule:evenodd;stroke:none"
       d="m 140,1013.6122 c 0,2.7613 -1.67875,5 -3.75,5 -2.07125,0 -3.75,-2.2387 -3.75,-5 0,-2.7612 1.67875,-5 3.75,-5 2.07125,0 3.75,2.2388 3.75,5"
       inkscape:connector-curvature="0" />
  </g>
</svg>
