<?xml version="1.0" encoding="UTF-8" standalone="no"?>
<!-- Created with Inkscape (http://www.inkscape.org/) -->

<svg
   xmlns:dc="http://purl.org/dc/elements/1.1/"
   xmlns:cc="http://creativecommons.org/ns#"
   xmlns:rdf="http://www.w3.org/1999/02/22-rdf-syntax-ns#"
   xmlns:svg="http://www.w3.org/2000/svg"
   xmlns="http://www.w3.org/2000/svg"
   xmlns:sodipodi="http://sodipodi.sourceforge.net/DTD/sodipodi-0.dtd"
   xmlns:inkscape="http://www.inkscape.org/namespaces/inkscape"
   width="275"
   height="275"
   id="svg2"
   version="1.1"
   inkscape:version="0.48.5 r10040"
   sodipodi:docname="user_2.svg">
  <defs
     id="defs4">
    <clipPath
       id="clipPath3009"
       clipPathUnits="userSpaceOnUse">
      <path
         id="path3011"
         clip-rule="evenodd"
         d="M 7000,1100 C 7000,492.488 6507.51,0 5900,0 5292.49,0 4800,492.488 4800,1100 c 0,607.51 492.49,1100 1100,1100 607.51,0 1100,-492.49 1100,-1100"
         inkscape:connector-curvature="0" />
    </clipPath>
    <clipPath
       id="clipPath3951"
       clipPathUnits="userSpaceOnUse">
      <path
         id="path3953"
         clip-rule="evenodd"
         d="M 7000,1100 C 7000,492.488 6507.51,0 5900,0 5292.49,0 4800,492.488 4800,1100 c 0,607.51 492.49,1100 1100,1100 607.51,0 1100,-492.49 1100,-1100" />
    </clipPath>
  </defs>
  <sodipodi:namedview
     id="base"
     pagecolor="#ffffff"
     bordercolor="#666666"
     borderopacity="1.0"
     inkscape:pageopacity="0.0"
     inkscape:pageshadow="2"
     inkscape:zoom="0.7"
     inkscape:cx="416.4307"
     inkscape:cy="125.16749"
     inkscape:document-units="px"
     inkscape:current-layer="layer1"
     showgrid="false"
     inkscape:window-width="1842"
     inkscape:window-height="1047"
     inkscape:window-x="-8"
     inkscape:window-y="-8"
     inkscape:window-maximized="1" />
  <metadata
     id="metadata7">
    <rdf:RDF>
      <cc:Work
         rdf:about="">
        <dc:format>image/svg+xml</dc:format>
        <dc:type
           rdf:resource="http://purl.org/dc/dcmitype/StillImage" />
        <dc:title></dc:title>
      </cc:Work>
    </rdf:RDF>
  </metadata>
  <g
     inkscape:label="Layer 1"
     inkscape:groupmode="layer"
     id="layer1"
     transform="translate(0,-777.36218)">
    <path
       id="path4119"
       style="fill:#fbfcfc;fill-opacity:1;fill-rule:evenodd;stroke:none"
       d="m 275,914.86218 c 0,75.939 -61.56125,137.50002 -137.5,137.50002 -75.939,0 -137.5,-61.56102 -137.5,-137.50002 0,-75.9387 61.561,-137.5 137.5,-137.5 75.93875,0 137.5,61.5613 137.5,137.5"
       inkscape:connector-curvature="0" />
    <path
       id="path4121"
       style="fill:#d48b18;fill-opacity:1;fill-rule:nonzero;stroke:none"
       d="M 136.83625,806.11468 C 88.59087,806.47218 50,846.46348 50,894.71098 l 0,102.6512 c 0,1.3814 1.11912,2.5 2.5,2.5 l 170,0 c 1.38125,0 2.5,-1.1186 2.5,-2.5 l 0,-103.75 c 0,-48.5462 -39.53375,-87.8575 -88.16375,-87.4975"
       inkscape:connector-curvature="0" />
    <path
       id="path4123"
       style="fill:#f4cca2;fill-opacity:1;fill-rule:evenodd;stroke:none"
       d="m 137.5,1052.3622 c 25.45375,0 49.28625,-6.9248 69.7325,-18.98 -5.34,-14.7685 -10.77125,-26.7339 -20.6875,-32.9439 -22.41375,-14.03612 -35.90375,-14.14602 -49.13125,-14.32612 -13.52413,-0.185 -26.7795,-0.1235 -49.03438,14.32612 -9.79787,6.3614 -15.25,18.2603 -20.61525,32.9415 20.44725,12.0576 44.28075,18.9824 69.73588,18.9824"
       inkscape:connector-curvature="0" />
    <path
       id="path4125"
       style="fill:#f4cca2;fill-opacity:1;fill-rule:evenodd;stroke:none"
       d="m 118.75,954.86218 0,37.5 c 0,6.9038 8.395,12.50002 18.75,12.50002 10.355,0 18.75,-5.59622 18.75,-12.50002 l 0,-37.5 -37.5,0"
       inkscape:connector-curvature="0" />
    <path
       id="path4127"
       style="fill:#f4cca2;fill-opacity:1;fill-rule:nonzero;stroke:none"
       d="m 222.5,908.63848 c 0,7.5937 -5.59625,13.75 -12.5,13.75 -6.90375,0 -12.5,-6.1563 -12.5,-13.75 0,-7.5938 5.59625,-13.75 12.5,-13.75 6.90375,0 12.5,6.1562 12.5,13.75"
       inkscape:connector-curvature="0" />
    <path
       id="path4129"
       style="fill:#f4cca2;fill-opacity:1;fill-rule:nonzero;stroke:none"
       d="m 77.5,908.63848 c 0,7.5937 -5.59625,13.75 -12.5,13.75 -6.90338,0 -12.5,-6.1563 -12.5,-13.75 0,-7.5938 5.59662,-13.75 12.5,-13.75 6.90375,0 12.5,6.1562 12.5,13.75"
       inkscape:connector-curvature="0" />
    <path
       id="path4131"
       style="fill:#fcdaae;fill-opacity:1;fill-rule:nonzero;stroke:none"
       d="m 211.23625,908.61218 c 0,40.7315 -33.01875,73.75 -73.75,73.75 -40.73088,0 -73.74988,-33.0185 -73.74988,-73.75 0,-40.7312 33.019,-73.75 73.74988,-73.75 40.73125,0 73.75,33.0188 73.75,73.75"
       inkscape:connector-curvature="0" />
    <path
       id="path4133"
       style="fill:#d48b18;fill-opacity:1;fill-rule:nonzero;stroke:none"
       d="m 53.82475,881.67718 c 12.87837,6.0413 27.24562,9.435 42.41162,9.435 39.59988,0 73.81738,-23.02 90.01613,-56.4062 -13.935,-9.3713 -30.71125,-14.8438 -48.76625,-14.8438 -39.38563,0 -72.6865,26.025 -83.6615,61.815"
       inkscape:connector-curvature="0" />
    <path
       id="path4135"
       style="fill:#4a4962;fill-opacity:1;fill-rule:nonzero;stroke:none"
       d="m 116.25,897.98718 c 0,3.1063 -2.5185,5.625 -5.625,5.625 -3.1065,0 -5.625,-2.5187 -5.625,-5.625 0,-3.1062 2.5185,-5.625 5.625,-5.625 3.1065,0 5.625,2.5188 5.625,5.625"
       inkscape:connector-curvature="0" />
    <path
       id="path4137"
       style="fill:#ffffff;fill-opacity:1;fill-rule:nonzero;stroke:none"
       d="m 113.75,896.73718 c 0,1.035 -0.83938,1.875 -1.875,1.875 -1.03563,0 -1.875,-0.84 -1.875,-1.875 0,-1.035 0.83937,-1.875 1.875,-1.875 1.03562,0 1.875,0.84 1.875,1.875"
       inkscape:connector-curvature="0" />
    <path
       id="path4139"
       style="fill:#4a4962;fill-opacity:1;fill-rule:nonzero;stroke:none"
       d="m 170,897.98718 c 0,3.1063 -2.51875,5.625 -5.625,5.625 -3.10625,0 -5.625,-2.5187 -5.625,-5.625 0,-3.1062 2.51875,-5.625 5.625,-5.625 3.10625,0 5.625,2.5188 5.625,5.625"
       inkscape:connector-curvature="0" />
    <path
       id="path4141"
       style="fill:#ffffff;fill-opacity:1;fill-rule:nonzero;stroke:none"
       d="m 167.5,896.73718 c 0,1.035 -0.84,1.875 -1.875,1.875 -1.035,0 -1.875,-0.84 -1.875,-1.875 0,-1.035 0.84,-1.875 1.875,-1.875 1.035,0 1.875,0.84 1.875,1.875"
       inkscape:connector-curvature="0" />
    <path
       id="path4143"
       style="fill:#f7c193;fill-opacity:1;fill-rule:nonzero;stroke:none"
       d="m 135,938.61218 -7.5,0 c -0.39,0 -0.75875,-0.1826 -0.995,-0.4936 -0.23625,-0.3115 -0.31375,-0.7154 -0.20875,-1.0914 l 6.25,-22.5 c 0.1775,-0.6412 0.82625,-1.0312 1.48,-0.885 0.65,0.1488 1.07125,0.78 0.955,1.4375 l -3.49125,19.7825 3.51,0 c 0.69,0 1.25,0.5586 1.25,1.25 l 0,1.25 c 0,0.6914 -0.56,1.25 -1.25,1.25"
       inkscape:connector-curvature="0" />
    <path
       id="path4145"
       style="fill:#e5825a;fill-opacity:1;fill-rule:nonzero;stroke:none"
       d="m 120.77787,951.11218 c -0.84912,0 -1.45125,0.8286 -1.19825,1.6401 2.35688,7.5548 9.48663,13.3599 17.92038,13.3599 8.43375,0 15.56375,-5.8051 17.92,-13.3599 0.2525,-0.8115 -0.34875,-1.6401 -1.1975,-1.6401 l -33.44462,0"
       inkscape:connector-curvature="0" />
    <path
       id="path4147"
       style="fill:#377cb8;fill-opacity:1;fill-rule:nonzero;stroke:none"
       d="m 71.709,870.66098 15.606,-13.8388 c 3.39937,-3.0137 8.78162,-1.3975 9.9575,2.99 l 3.581,13.3638 c 1.17575,4.3887 -2.67775,8.48 -7.12788,7.5687 l -20.43462,-4.1812 -1.582,-5.9025"
       inkscape:connector-curvature="0" />
    <path
       id="path4149"
       style="fill:#377cb8;fill-opacity:1;fill-rule:nonzero;stroke:none"
       d="m 71.709,870.66098 -20.43463,-4.1813 c -4.45012,-0.9112 -8.30362,3.18 -7.12787,7.5688 l 3.581,13.3637 c 1.17587,4.3875 6.55812,6.0038 9.9575,2.99 l 15.606,-13.8387 -1.582,-5.9025"
       inkscape:connector-curvature="0" />
    <path
       id="path4151"
       style="fill:#49b3d6;fill-opacity:1;fill-rule:nonzero;stroke:none"
       d="m 81.3545,871.23968 c -1.3105,-4.89 -6.33688,-7.7925 -11.227,-6.4812 -4.89025,1.31 -7.792,6.3362 -6.482,11.2262 1.3105,4.89 6.33687,7.7925 11.227,6.4813 4.89025,-1.31 7.792,-6.3363 6.482,-11.2263"
       inkscape:connector-curvature="0" />
    <path
       id="path4153"
       style="fill:#e94932;fill-opacity:1;fill-rule:evenodd;stroke:none"
       d="m 186.545,1000.4383 c -4.6125,-2.88862 -8.8425,-5.17862 -12.77375,-7.00972 -4.2225,12.33352 -18.85875,21.43362 -36.27125,21.43362 -17.52738,0 -32.24263,-9.2202 -36.3535,-21.67772 -3.92488,1.8852 -8.14988,4.2563 -12.76713,7.25382 -9.79787,6.3614 -15.25,18.2603 -20.61525,32.9415 20.44725,12.0576 44.28075,18.9824 69.73588,18.9824 25.45375,0 49.28625,-6.9248 69.7325,-18.98 -5.34,-14.7685 -10.77125,-26.7339 -20.6875,-32.9439"
       inkscape:connector-curvature="0" />
  </g>
</svg>
