<?xml version="1.0" encoding="UTF-8" standalone="no"?>
<!-- Created with Inkscape (http://www.inkscape.org/) -->

<svg
   xmlns:dc="http://purl.org/dc/elements/1.1/"
   xmlns:cc="http://creativecommons.org/ns#"
   xmlns:rdf="http://www.w3.org/1999/02/22-rdf-syntax-ns#"
   xmlns:svg="http://www.w3.org/2000/svg"
   xmlns="http://www.w3.org/2000/svg"
   xmlns:sodipodi="http://sodipodi.sourceforge.net/DTD/sodipodi-0.dtd"
   xmlns:inkscape="http://www.inkscape.org/namespaces/inkscape"
   width="275"
   height="275"
   id="svg2"
   version="1.1"
   inkscape:version="0.48.5 r10040"
   sodipodi:docname="user_1.svg"
   inkscape:export-filename="C:\Users\Willie\SkyDrive\Uni\Interaction Programming\Lab 4\tabletopmatch\img\users\user_1.png"
   inkscape:export-xdpi="355.87"
   inkscape:export-ydpi="355.87">
  <defs
     id="defs4">
    <clipPath
       id="clipPath3009"
       clipPathUnits="userSpaceOnUse">
      <path
         id="path3011"
         clip-rule="evenodd"
         d="M 7000,1100 C 7000,492.488 6507.51,0 5900,0 5292.49,0 4800,492.488 4800,1100 c 0,607.51 492.49,1100 1100,1100 607.51,0 1100,-492.49 1100,-1100"
         inkscape:connector-curvature="0" />
    </clipPath>
    <clipPath
       id="clipPath3951"
       clipPathUnits="userSpaceOnUse">
      <path
         id="path3953"
         clip-rule="evenodd"
         d="M 7000,1100 C 7000,492.488 6507.51,0 5900,0 5292.49,0 4800,492.488 4800,1100 c 0,607.51 492.49,1100 1100,1100 607.51,0 1100,-492.49 1100,-1100" />
    </clipPath>
  </defs>
  <sodipodi:namedview
     id="base"
     pagecolor="#ffffff"
     bordercolor="#666666"
     borderopacity="1.0"
     inkscape:pageopacity="0.0"
     inkscape:pageshadow="2"
     inkscape:zoom="0.7"
     inkscape:cx="416.4307"
     inkscape:cy="125.16749"
     inkscape:document-units="px"
     inkscape:current-layer="layer1"
     showgrid="false"
     inkscape:window-width="1842"
     inkscape:window-height="1047"
     inkscape:window-x="-8"
     inkscape:window-y="-8"
     inkscape:window-maximized="1" />
  <metadata
     id="metadata7">
    <rdf:RDF>
      <cc:Work
         rdf:about="">
        <dc:format>image/svg+xml</dc:format>
        <dc:type
           rdf:resource="http://purl.org/dc/dcmitype/StillImage" />
        <dc:title></dc:title>
      </cc:Work>
    </rdf:RDF>
  </metadata>
  <g
     inkscape:label="Layer 1"
     inkscape:groupmode="layer"
     id="layer1"
     transform="translate(0,-777.36218)">
    <path
       id="path3985"
       style="fill:#fbfcfc;fill-opacity:1;fill-rule:evenodd;stroke:none"
       d="m 275,914.86218 c 0,75.93875 -61.56125,137.50002 -137.5,137.50002 -75.939,0 -137.5,-61.56127 -137.5,-137.50002 0,-75.93875 61.561,-137.5 137.5,-137.5 75.93875,0 137.5,61.56125 137.5,137.5"
       inkscape:connector-curvature="0" />
    <path
       id="path3987"
       style="fill:#314aa6;fill-opacity:1;fill-rule:evenodd;stroke:none"
       d="m 137.5,1052.3622 c 25.45375,0 49.28625,-6.925 69.7325,-18.98 -5.34,-14.7687 -10.77125,-26.7337 -20.6875,-32.9438 -22.41375,-14.03622 -35.90375,-15.39622 -49.13125,-15.57622 -13.52413,-0.185 -26.7795,1.12625 -49.03437,15.57622 -9.79788,6.3613 -15.25,18.26 -20.61525,32.9413 20.44724,12.0575 44.28074,18.9825 69.73587,18.9825"
       inkscape:connector-curvature="0" />
    <path
       id="path3989"
       style="fill:#e7ae87;fill-opacity:1;fill-rule:nonzero;stroke:none"
       d="m 117.5,952.36218 0,39.8125 -0.0136,0.1875 c 0,7.59375 8.95363,13.75002 19.99988,13.75002 11.04625,0 20,-6.15627 20,-13.75002 l 0.0137,0 0,-40 -40,0"
       inkscape:connector-curvature="0" />
    <path
       id="path3991"
       style="fill:#f4cca2;fill-opacity:1;fill-rule:nonzero;stroke:none"
       d="m 225.13625,908.63843 c 0,7.59375 -5.5975,13.75 -12.5,13.75 -6.90375,0 -12.50125,-6.15625 -12.50125,-13.75 0,-7.59375 5.5975,-13.75 12.50125,-13.75 6.9025,0 12.5,6.15625 12.5,13.75"
       inkscape:connector-curvature="0" />
    <path
       id="path3993"
       style="fill:#f4cca2;fill-opacity:1;fill-rule:nonzero;stroke:none"
       d="m 75.13575,908.63843 c 0,7.59375 -5.59663,13.75 -12.5,13.75 -6.90388,0 -12.5,-6.15625 -12.5,-13.75 0,-7.59375 5.59612,-13.75 12.5,-13.75 6.90337,0 12.5,6.15625 12.5,13.75"
       inkscape:connector-curvature="0" />
    <path
       id="path3995"
       style="fill:#fcdaae;fill-opacity:1;fill-rule:nonzero;stroke:none"
       d="m 212.48625,908.61218 c 0,41.42125 -33.57875,75 -75,75 -41.42125,0 -74.99988,-33.57875 -74.99988,-75 0,-41.42125 33.57863,-75 74.99988,-75 41.42125,0 75,33.57875 75,75"
       inkscape:connector-curvature="0" />
    <path
       id="path3997"
       style="fill:#fcdaae;fill-opacity:1;fill-rule:nonzero;stroke:none"
       d="m 212.48625,896.11218 c 0,41.42125 -33.57875,75 -75,75 -41.42125,0 -74.99988,-33.57875 -74.99988,-75 0,-41.42125 33.57863,-75 74.99988,-75 41.42125,0 75,33.57875 75,75"
       inkscape:connector-curvature="0" />
    <path
       id="path3999"
       style="fill:#d48b18;fill-opacity:1;fill-rule:nonzero;stroke:none"
       d="m 234.69,823.76593 c 0,0 -4.55125,5.52 -21.35875,5.52 -15.8875,0 -30.63,-20.61875 -68.95375,-22.88 -2.2725,-0.19125 -4.57,-0.29375 -6.89125,-0.29375 -44.7445,0 -81.0175,36.0375 -81.0175,80.7825 0,10.8675 2.145,21.7175 6.02637,30.4675 l 3.07863,0 c 0,-35 6.8765,-68.3475 49.041,-64.14625 42.164,4.2 45.3715,4.755 82.91275,1.91625 12.80375,32.63625 11.99625,62.23 11.99625,62.23 l 2.95375,0 c 3.88125,-8.75 6.02625,-19.55875 6.02625,-30.42625 0,-11.80875 -2.52875,-22.96375 -7.07,-33.0725 0.2475,-0.0912 0.495,-0.1525 0.735,-0.255 C 234.12,844.27468 234.69,823.76593 234.69,823.76593"
       inkscape:connector-curvature="0" />
    <path
       id="path4001"
       style="fill:#4a4962;fill-opacity:1;fill-rule:nonzero;stroke:none"
       d="m 116.25,897.98718 c 0,3.10625 -2.5185,5.625 -5.625,5.625 -3.1065,0 -5.625,-2.51875 -5.625,-5.625 0,-3.10625 2.5185,-5.625 5.625,-5.625 3.1065,0 5.625,2.51875 5.625,5.625"
       inkscape:connector-curvature="0" />
    <path
       id="path4003"
       style="fill:#ffffff;fill-opacity:1;fill-rule:nonzero;stroke:none"
       d="m 113.75,896.73718 c 0,1.03625 -0.83938,1.875 -1.875,1.875 -1.03563,0 -1.875,-0.83875 -1.875,-1.875 0,-1.03625 0.83937,-1.875 1.875,-1.875 1.03562,0 1.875,0.83875 1.875,1.875"
       inkscape:connector-curvature="0" />
    <path
       id="path4005"
       style="fill:#4a4962;fill-opacity:1;fill-rule:nonzero;stroke:none"
       d="m 170,897.98718 c 0,3.10625 -2.51875,5.625 -5.625,5.625 -3.10625,0 -5.625,-2.51875 -5.625,-5.625 0,-3.10625 2.51875,-5.625 5.625,-5.625 3.10625,0 5.625,2.51875 5.625,5.625"
       inkscape:connector-curvature="0" />
    <path
       id="path4007"
       style="fill:#ffffff;fill-opacity:1;fill-rule:nonzero;stroke:none"
       d="m 167.5,896.73718 c 0,1.03625 -0.84,1.875 -1.875,1.875 -1.035,0 -1.875,-0.83875 -1.875,-1.875 0,-1.03625 0.84,-1.875 1.875,-1.875 1.035,0 1.875,0.83875 1.875,1.875"
       inkscape:connector-curvature="0" />
    <path
       id="path4009"
       style="fill:#e5825a;fill-opacity:1;fill-rule:nonzero;stroke:none"
       d="m 136.18125,969.77093 c 9.78,1.375 18.90125,-5.38 20.9325,-14.59875 0.15875,-0.72375 -0.30875,-1.4375 -1.04375,-1.54 l -34.55825,-4.8575 c -0.73438,-0.1025 -1.38138,0.45375 -1.42725,1.19375 -0.58888,9.42125 6.31675,18.4275 16.09675,19.8025"
       inkscape:connector-curvature="0" />
    <path
       id="path4011"
       style="fill:#f7c193;fill-opacity:1;fill-rule:nonzero;stroke:none"
       d="m 135,938.61218 -7.5,0 c -0.39,0 -0.75875,-0.1825 -0.995,-0.49375 -0.23625,-0.31125 -0.31375,-0.715 -0.20875,-1.09125 l 6.25,-22.5 c 0.1775,-0.64125 0.82625,-1.03125 1.48,-0.885 0.65,0.14875 1.07125,0.78 0.955,1.4375 l -3.49125,19.7825 3.51,0 c 0.69,0 1.25,0.55875 1.25,1.25 l 0,1.25 c 0,0.69125 -0.56,1.25 -1.25,1.25"
       inkscape:connector-curvature="0" />
  </g>
</svg>
