<?xml version="1.0" encoding="utf-8"?>
<!-- Generator: Adobe Illustrator 16.0.0, SVG Export Plug-In . SVG Version: 6.00 Build 0)  -->
<!DOCTYPE svg PUBLIC "-//W3C//DTD SVG 1.1//EN" "http://www.w3.org/Graphics/SVG/1.1/DTD/svg11.dtd">
<svg version="1.1" id="Layer_1" xmlns="http://www.w3.org/2000/svg" xmlns:xlink="http://www.w3.org/1999/xlink" x="0px" y="0px"
	 width="898px" height="880px" viewBox="0 0 898 880" enable-background="new 0 0 898 880" xml:space="preserve">
<path display="none" fill="none" stroke="#FF0000" stroke-miterlimit="10" d="M319.105-228.112
	c-2.056,4.007,14.729,53.945,16.562,55.612s48.013,27.941,52.667,27.334c2.176-0.284,9.269-0.746,14.667-6.334
	c14.167-14.666,38.021-33.346,39.334-37.166c1.833-5.334,0.166-13.001-4.167-21.834s-14.333-35.333-16.833-38.833
	s-39.001-20.833-43.334-23s-12.667,0-14.167,2.167s-27.414,24.504-31.833,28C327.603-238.688,321.722-233.212,319.105-228.112z"/>
<line display="none" fill="none" stroke="#00FFFF" stroke-miterlimit="10" x1="450" y1="528.063" x2="344" y2="345.916"/>
<path display="none" fill="none" stroke="#FF0000" stroke-miterlimit="10" d="M263.5,529.25"/>
<path display="none" fill="none" stroke="#FF0000" stroke-miterlimit="10" d="M381.5,410.5"/>
<line display="none" fill="none" stroke="#FF00FF" stroke-miterlimit="10" x1="544.3" y1="346" x2="439.313" y2="527"/>
<line display="none" fill="none" stroke="#C1272D" stroke-miterlimit="10" x1="544" y1="346.5" x2="318" y2="346.5"/>
<circle fill="#0E787B" cx="445.5" cy="439.5" r="376.5"/>
<g>
	<polygon fill="#F39D12" points="544.3,346 444.899,518.168 345.5,346 	"/>
	<polygon fill="#D35400" points="340.5,333 445,225 549.5,333 	"/>
	<polygon fill="#E67E22" points="439,527 265.75,527 332.5,346 	"/>
	<polygon fill="#E67E22" points="450.75,527 624,527 557.25,346 	"/>
	<polygon fill="#D35400" points="260.5,512.406 267,341 322.969,341 	"/>
	<polygon fill="#D35400" points="629.969,512.406 623.469,341 567.5,341 	"/>
	<polygon fill="#F39D12" points="267,333 325.5,333 430.333,225 	"/>
	<polygon fill="#F39D12" points="623.332,333 564.832,333 459.999,225 	"/>
	<polygon fill="#F39D12" points="439,643.334 271,538 439,538 	"/>
	<polygon fill="#F39D12" points="451,643.334 619,538 451,538 	"/>
</g>
<text transform="matrix(1 0 0 1 -203.0005 1356.875)" fill="#0E787B" font-family="'Neometric-Medium'" font-size="200">tabletop match</text>
<g>
	<circle fill="#0E787B" cx="285.5" cy="1313.5" r="49.5"/>
	<g>
		<polygon fill="#D35400" points="298.489,1301 285.421,1323.636 272.353,1301 		"/>
		<polygon fill="#F39D12" points="271.695,1300 285.435,1285.801 299.173,1300 		"/>
		<polygon fill="#E67E22" points="284.646,1325 261.867,1325 270.644,1301.203 		"/>
		<polygon fill="#E67E22" points="286.19,1325 308.968,1325 300.192,1301.203 		"/>
		<polygon fill="#F39D12" points="261.571,1323.535 262.426,1301 269.785,1301 		"/>
		<polygon fill="#F39D12" points="309.227,1323.535 308.372,1301 301.014,1301 		"/>
		<polygon fill="#D35400" points="262.558,1300 270.249,1300 284.032,1285.801 		"/>
		<polygon fill="#D35400" points="308.354,1300 300.663,1300 286.88,1285.801 		"/>
		<polygon fill="#D35400" points="285,1339.904 262.558,1326 285,1326 		"/>
		<polygon fill="#D35400" points="286,1339.904 308.311,1326 286,1326 		"/>
	</g>
</g>
<g display="none">
	<circle display="inline" fill="#006363" cx="282.658" cy="1322.658" r="41.992"/>
	<g display="inline">
		<polygon fill="#D35400" points="293.677,1312 282.591,1331.202 271.504,1312 		"/>
		<polygon fill="#F39D12" points="270.947,1311 282.602,1298.954 294.257,1311 		"/>
		<polygon fill="#E67E22" points="281.933,1332 262.609,1332 270.055,1311.813 		"/>
		<polygon fill="#E67E22" points="283.243,1332 302.566,1332 295.121,1311.813 		"/>
		<polygon fill="#F39D12" points="262.359,1331.117 263.084,1312 269.327,1312 		"/>
		<polygon fill="#F39D12" points="302.785,1331.117 302.061,1312 295.818,1312 		"/>
		<polygon fill="#D35400" points="263.195,1311 269.72,1311 281.412,1298.954 		"/>
		<polygon fill="#D35400" points="302.046,1311 295.521,1311 283.829,1298.954 		"/>
		<polygon fill="#D35400" points="282,1345.169 263.195,1334 282,1334 		"/>
		<polygon fill="#D35400" points="283,1345.169 302.008,1334 283,1334 		"/>
	</g>
</g>
<g display="none">
	<circle display="inline" fill="#8E44AD" cx="266.5" cy="1311.5" r="45.5"/>
	<g display="inline">
		<polygon fill="#D35400" points="278.439,1300 266.428,1320.806 254.415,1300 		"/>
		<polygon fill="#F39D12" points="253.811,1299 266.439,1285.948 279.068,1299 		"/>
		<polygon fill="#E67E22" points="265.714,1322 244.777,1322 252.844,1300.126 		"/>
		<polygon fill="#E67E22" points="267.135,1322 288.072,1322 280.005,1300.126 		"/>
		<polygon fill="#F39D12" points="244.505,1320.715 245.291,1300 252.055,1300 		"/>
		<polygon fill="#F39D12" points="288.31,1320.715 287.524,1300 280.761,1300 		"/>
		<polygon fill="#D35400" points="245.412,1299 252.481,1299 265.15,1285.948 		"/>
		<polygon fill="#D35400" points="287.508,1299 280.438,1299 267.769,1285.948 		"/>
		<polygon fill="#D35400" points="265,1335.892 245.412,1323 265,1323 		"/>
		<polygon fill="#D35400" points="267,1335.892 287.467,1323 267,1323 		"/>
	</g>
</g>
</svg>
