<?xml version="1.0" encoding="utf-8"?>
<!-- Generator: Adobe Illustrator 16.0.0, SVG Export Plug-In . SVG Version: 6.00 Build 0)  -->
<!DOCTYPE svg PUBLIC "-//W3C//DTD SVG 1.1//EN" "http://www.w3.org/Graphics/SVG/1.1/DTD/svg11.dtd">
<svg version="1.1" id="Layer_1" xmlns="http://www.w3.org/2000/svg" xmlns:xlink="http://www.w3.org/1999/xlink" x="0px" y="0px"
	 width="600px" height="600px" viewBox="0 0 600 600" enable-background="new 0 0 600 600" xml:space="preserve">
<path fill="#283340" d="M576.251,302.416c0,149.665-121.32,270.986-270.985,270.986c-149.658,0-270.979-121.321-270.979-270.986
	c0-149.658,121.321-270.979,270.979-270.979C454.931,31.437,576.251,152.757,576.251,302.416z"/>
<g>
	<polygon fill="#EA7B58" points="375.042,239 306.849,357.111 238.657,239 	"/>
	<polygon fill="#F8A185" points="231.058,232 306.27,154.266 381.488,232 	"/>
	<polygon fill="#D15A33" points="312.794,369.091 437.49,368.898 389.245,238.698 	"/>
	<polygon fill="#D15A33" points="300.489,369.091 175.793,368.898 224.038,238.698 	"/>
	<polygon fill="#F8A185" points="170.64,358.369 175.316,235 215.603,235 	"/>
	<polygon fill="#F8A185" points="441.897,357.982 437.108,234.62 396.828,234.657 	"/>
	<polygon fill="#EA7B58" points="180.039,228 297.599,150.266 222.144,228 	"/>
	<polygon fill="#EA7B58" points="431.81,227.855 314.692,149.461 389.705,227.618 	"/>
	<polygon fill="#EA7B58" points="301.359,456.283 179.039,378 301.359,378 	"/>
	<polygon fill="#EA7B58" points="311.359,456.283 433.042,378 311.359,378 	"/>
</g>
</svg>
